<svg width="327" height="231" viewBox="0 0 500 354" fill="none" xmlns="http://www.w3.org/2000/svg">
<g clip-path="url(#clip0)">
<path d="M498.221 350.614H5.62427C5.21151 350.641 4.82246 350.817 4.53 351.109C4.23754 351.402 4.06173 351.791 4.03551 352.204C4.02659 352.64 4.18719 353.063 4.48352 353.383C4.77986 353.703 5.1888 353.896 5.62427 353.92H498.141C498.377 353.943 498.615 353.917 498.84 353.842C499.065 353.767 499.272 353.646 499.448 353.487C499.623 353.328 499.764 353.133 499.86 352.916C499.956 352.699 500.005 352.465 500.005 352.228C500.005 351.99 499.956 351.756 499.86 351.539C499.764 351.322 499.623 351.128 499.448 350.968C499.272 350.809 499.065 350.688 498.84 350.613C498.615 350.539 498.377 350.512 498.141 350.535L498.221 350.614Z" fill="#0E425F"/>
<path d="M159.337 20.5524C154.308 20.9649 149.515 22.8596 145.563 25.9971C141.61 29.1346 138.676 33.374 137.132 38.1794C135.587 42.9848 135.501 48.1405 136.885 52.9948C138.268 57.849 141.059 62.184 144.905 65.4516C148.75 68.7193 153.478 70.7729 158.49 71.353C163.502 71.933 168.573 71.0135 173.063 68.7105C177.553 66.4076 181.259 62.8247 183.714 58.4146C186.169 54.0046 187.262 48.9654 186.854 43.9341C186.304 37.1831 183.095 30.9272 177.935 26.5425C172.775 22.1577 166.085 20.003 159.337 20.5524ZM160.163 30.5027C157.098 30.7476 154.174 31.896 151.761 33.8027C149.348 35.7094 147.554 38.2889 146.606 41.2153C145.657 44.1417 145.597 47.2836 146.433 50.2442C147.269 53.2047 148.963 55.851 151.301 57.8487C153.64 59.8463 156.517 61.1058 159.571 61.4678C162.624 61.8299 165.717 61.2783 168.457 59.8828C171.197 58.4873 173.463 56.3105 174.967 53.6274C176.471 50.9443 177.147 47.8754 176.909 44.8083C176.752 42.7674 176.194 40.7776 175.267 38.9529C174.34 37.1283 173.062 35.5047 171.506 34.1755C169.95 32.8464 168.147 31.8377 166.201 31.2074C164.254 30.5772 162.202 30.3377 160.163 30.5027ZM194.401 30.7411C194.592 31.0141 194.855 31.2285 195.161 31.3605C195.467 31.4924 195.803 31.5366 196.133 31.4882C199.421 31.0113 205.03 32.9665 207.762 34.3017L209.033 50.0537C206.555 51.818 201.344 54.6633 198.007 54.711C197.674 54.7164 197.349 54.8144 197.069 54.994C196.788 55.1737 196.563 55.4279 196.419 55.7282L191.112 66.9502C190.964 67.2498 190.904 67.5858 190.941 67.9183C190.977 68.2507 191.109 68.5657 191.319 68.8259C193.384 71.4326 194.496 77.282 194.687 80.318L181.707 89.2829C178.942 88.0271 173.858 84.9276 172.174 82.0824C172.004 81.7964 171.758 81.5632 171.464 81.4088C171.169 81.2545 170.838 81.185 170.506 81.2081L158.129 82.2254C157.786 82.2392 157.454 82.3514 157.172 82.5486C156.89 82.7459 156.671 83.0199 156.541 83.338C155.317 86.4217 150.805 90.3001 148.279 92.0009L133.98 85.2455C133.694 82.2254 133.837 76.2647 135.458 73.3559C135.618 73.0655 135.694 72.7359 135.677 72.4045C135.661 72.0731 135.551 71.753 135.362 71.4803L128.308 61.2598C128.121 60.9882 127.86 60.7754 127.556 60.646C127.252 60.5166 126.918 60.4759 126.592 60.5286C123.288 61.0055 117.679 59.0345 114.947 57.6993L113.676 41.9631C116.154 40.1987 121.381 37.3376 124.702 37.2899C125.036 37.2882 125.362 37.1918 125.644 37.0117C125.925 36.8316 126.149 36.5753 126.291 36.2726L131.597 25.0507C131.746 24.751 131.805 24.4151 131.768 24.0826C131.732 23.7502 131.601 23.4352 131.391 23.1751C129.341 20.5683 128.213 14.7348 128.022 11.6988L141.003 2.71804C143.767 3.97376 148.851 7.07332 150.535 9.93444C150.711 10.2175 150.961 10.4471 151.258 10.5984C151.554 10.7497 151.887 10.8169 152.219 10.7928L164.58 9.79139C164.911 9.76168 165.228 9.64044 165.494 9.44116C165.761 9.24188 165.967 8.97241 166.089 8.66285C167.312 5.5792 171.825 1.70077 174.351 -7.62939e-06L188.65 6.77133C188.936 9.7914 188.793 15.7362 187.172 18.645C187.012 18.9354 186.936 19.2649 186.952 19.5964C186.969 19.9278 187.078 20.2479 187.267 20.5206L194.401 30.7411Z" fill="#D7DAE5"/>
<path d="M252.216 268.611C248.422 263.103 243.08 258.844 236.867 256.373C230.653 253.902 223.847 253.33 217.308 254.729C210.77 256.128 204.792 259.435 200.132 264.232C195.472 269.03 192.339 275.102 191.128 281.681C189.917 288.26 190.684 295.05 193.33 301.194C195.977 307.337 200.385 312.557 205.996 316.194C211.608 319.831 218.172 321.722 224.858 321.627C231.544 321.532 238.051 319.456 243.558 315.661C250.939 310.568 255.998 302.752 257.622 293.929C259.245 285.107 257.301 276 252.216 268.611ZM241.333 276.114C239.027 272.731 235.769 270.11 231.971 268.584C228.173 267.057 224.008 266.694 220.003 267.54C215.999 268.386 212.336 270.403 209.48 273.335C206.623 276.268 204.702 279.983 203.959 284.01C203.217 288.036 203.687 292.193 205.31 295.952C206.933 299.711 209.636 302.902 213.075 305.122C216.514 307.342 220.535 308.489 224.627 308.418C228.719 308.348 232.698 307.062 236.059 304.725C240.531 301.615 243.594 296.864 244.582 291.506C245.57 286.147 244.402 280.615 241.333 276.114ZM263.687 315.613C263.501 316.012 263.428 316.454 263.475 316.891C263.523 317.328 263.69 317.744 263.957 318.093C266.69 321.542 268.136 329.299 268.422 333.305L251.2 345.178C247.545 343.589 240.825 339.392 238.49 335.641C238.266 335.265 237.943 334.959 237.556 334.757C237.169 334.555 236.733 334.465 236.297 334.497L219.901 335.816C219.464 335.854 219.045 336.012 218.692 336.273C218.339 336.534 218.064 336.887 217.899 337.294C216.31 341.379 210.289 346.513 206.937 348.755L188.046 339.774C187.681 335.752 187.887 327.884 190.032 324.038C190.242 323.65 190.341 323.212 190.319 322.772C190.296 322.332 190.153 321.906 189.905 321.542L180.579 308.015C180.331 307.653 179.987 307.367 179.586 307.19C179.184 307.013 178.742 306.952 178.307 307.014C173.954 307.65 166.519 305.043 162.896 303.263L161.323 282.377C164.612 280.04 171.539 276.273 175.924 276.209C176.366 276.201 176.798 276.07 177.171 275.832C177.544 275.594 177.844 275.257 178.037 274.858L185.091 260.012C185.279 259.613 185.352 259.17 185.301 258.732C185.251 258.294 185.079 257.878 184.805 257.533C182.088 254.083 180.627 246.406 180.357 242.321L197.579 230.447C201.233 232.132 207.953 236.233 210.21 239.984C210.436 240.364 210.765 240.672 211.158 240.875C211.551 241.077 211.993 241.165 212.434 241.129L228.814 239.825C229.251 239.787 229.67 239.629 230.023 239.368C230.376 239.108 230.651 238.754 230.816 238.347C232.405 234.246 238.426 229.128 241.762 226.871L260.621 235.899C260.986 239.921 260.796 247.789 258.651 251.635C258.439 252.022 258.337 252.459 258.356 252.899C258.376 253.339 258.516 253.765 258.762 254.131L268.104 267.674C268.352 268.034 268.697 268.318 269.099 268.492C269.5 268.667 269.943 268.724 270.376 268.659C274.729 268.023 282.165 270.646 285.787 272.426L287.376 293.281C284.103 295.601 277.176 299.369 272.775 299.432C272.335 299.443 271.907 299.575 271.537 299.814C271.167 300.052 270.87 300.387 270.678 300.783L263.687 315.613Z" fill="#DEE8F7"/>
<path d="M95.8026 174.91C96.0193 171.119 95.1077 167.349 93.1832 164.076C91.2586 160.804 88.4075 158.176 84.9902 156.524C81.5729 154.872 77.7428 154.271 73.9842 154.797C70.2255 155.323 66.7071 156.952 63.8736 159.478C61.0401 162.004 59.0187 165.314 58.0651 168.989C57.1115 172.664 57.2684 176.539 58.5159 180.125C59.7635 183.711 62.0457 186.847 65.0741 189.135C68.1025 191.424 71.7411 192.763 75.53 192.983C78.0476 193.14 80.5714 192.799 82.9573 191.979C85.3431 191.16 87.544 189.878 89.4342 188.207C91.3245 186.536 92.8669 184.508 93.9732 182.24C95.0796 179.972 95.7282 177.508 95.882 174.989L95.8026 174.91ZM88.3195 174.449C88.4594 172.14 87.9123 169.842 86.7474 167.845C85.5825 165.848 83.852 164.24 81.7745 163.226C79.697 162.213 77.3658 161.837 75.0753 162.148C72.7848 162.459 70.6378 163.442 68.9055 164.974C67.1732 166.505 65.9334 168.515 65.3427 170.751C64.7519 172.987 64.8367 175.348 65.5864 177.535C66.3361 179.723 67.717 181.639 69.5547 183.042C71.3923 184.444 73.6044 185.271 75.9113 185.416C77.4462 185.513 78.9852 185.306 80.4401 184.807C81.895 184.308 83.2371 183.527 84.3897 182.508C85.5424 181.489 86.4827 180.253 87.1571 178.87C87.8314 177.487 88.2264 175.985 88.3195 174.449ZM84.4588 199.881C84.2387 199.993 84.0539 200.163 83.9249 200.374C83.7959 200.584 83.7277 200.826 83.728 201.073C83.728 203.585 81.6626 207.542 80.3757 209.434L68.5235 208.703C67.4908 206.668 65.9179 202.472 66.2357 199.992C66.2682 199.744 66.2303 199.492 66.1263 199.264C66.0224 199.037 65.8566 198.843 65.6478 198.705L57.8629 193.555C57.654 193.422 57.4115 193.351 57.1638 193.351C56.9162 193.351 56.6737 193.422 56.4648 193.555C54.2882 194.81 49.8238 195.001 47.5518 194.842L42.2612 184.208C43.5005 182.285 46.3444 178.836 48.6163 177.85C48.8461 177.754 49.0449 177.597 49.1907 177.395C49.3365 177.193 49.4236 176.954 49.4425 176.706L50.0144 167.376C50.0316 167.127 49.978 166.878 49.8599 166.659C49.7418 166.44 49.564 166.258 49.3471 166.136C47.1705 164.896 44.7715 161.113 43.7864 159.046L50.3322 149.16C52.62 149.271 57.0367 150.002 59.0227 151.528C59.2249 151.675 59.4631 151.765 59.7121 151.787C59.9611 151.81 60.2115 151.764 60.4367 151.655L68.7936 147.491C69.0137 147.379 69.1985 147.208 69.3275 146.998C69.4565 146.788 69.5247 146.545 69.5244 146.299C69.5244 143.787 71.5898 139.829 72.8767 137.938L84.7289 138.669C85.7616 140.703 87.3345 144.9 87.0167 147.379C86.9842 147.628 87.0221 147.88 87.1261 148.108C87.23 148.335 87.3958 148.529 87.6046 148.667L95.3895 153.817C95.5985 153.95 95.841 154.02 96.0886 154.02C96.3362 154.02 96.5787 153.95 96.7876 153.817C98.9484 152.561 103.429 152.371 105.701 152.529L110.991 163.179C109.752 165.087 106.908 168.536 104.636 169.537C104.402 169.631 104.199 169.791 104.053 169.996C103.907 170.202 103.822 170.445 103.81 170.698L103.238 180.012C103.221 180.261 103.274 180.509 103.392 180.729C103.511 180.948 103.688 181.129 103.905 181.252C106.082 182.492 108.481 186.275 109.466 188.325L102.904 198.228C100.632 198.117 96.2157 197.37 94.2297 195.86C94.0299 195.707 93.7911 195.615 93.541 195.592C93.2909 195.57 93.0395 195.618 92.8157 195.732L84.4588 199.881Z" fill="#D7DAE5"/>
<path d="M66.3312 36.2091C60.3123 34.6759 53.9742 34.9634 48.1187 37.0351C42.2632 39.1068 37.1535 42.8695 33.436 47.8473C29.7185 52.8251 27.5604 58.7942 27.2347 64.9994C26.9089 71.2047 28.4302 77.3671 31.606 82.7071C34.7818 88.0471 39.4694 92.3247 45.0758 94.9986C50.6822 97.6726 56.9553 98.6227 63.1016 97.7289C69.2478 96.835 74.991 94.1372 79.6043 89.977C84.2177 85.8167 87.494 80.3809 89.0187 74.3573C91.061 66.2888 89.8188 57.7393 85.5649 50.5865C81.311 43.4337 74.3932 38.2626 66.3312 36.2091ZM63.3125 48.1145C59.6599 47.1973 55.8177 47.3829 52.2704 48.6478C48.7231 49.9128 45.6297 52.2004 43.3805 55.2222C41.1312 58.2439 39.8267 61.8645 39.6317 65.627C39.4367 69.3896 40.3598 73.1257 42.2847 76.364C44.2095 79.6024 47.0497 82.1978 50.4472 83.823C53.8447 85.4483 57.6472 86.0305 61.375 85.4962C65.1028 84.9619 68.589 83.335 71.3937 80.8209C74.1984 78.3067 76.1961 75.0178 77.1348 71.369C77.7612 68.9339 77.9002 66.3989 77.5438 63.9099C77.1874 61.4208 76.3426 59.0268 75.058 56.8656C73.7734 54.7044 72.0743 52.8186 70.0586 51.3168C68.0429 49.8149 65.7502 48.7266 63.3125 48.1145ZM103.032 62.0545C103.136 62.4532 103.351 62.8142 103.652 63.0956C103.952 63.377 104.327 63.5671 104.732 63.644C108.751 64.3911 114.502 68.9212 117.156 71.5916L112.389 90.4273C108.815 91.4923 101.586 92.7321 97.7093 91.4605C97.3209 91.3375 96.9061 91.3243 96.5108 91.4225C96.1154 91.5207 95.7549 91.7264 95.4691 92.0168L84.8085 102.953C84.5221 103.248 84.3231 103.616 84.2333 104.017C84.1436 104.418 84.1667 104.837 84.3001 105.226C85.6664 109.072 84.6179 116.352 83.6487 119.929L64.9489 125.206C62.248 122.631 57.5771 116.988 56.7192 112.998C56.6369 112.599 56.4444 112.231 56.1636 111.936C55.8827 111.641 55.5248 111.431 55.1304 111.329L40.3231 107.562C39.929 107.458 39.5135 107.469 39.1252 107.593C38.7369 107.717 38.3919 107.949 38.1306 108.262C35.4615 111.361 28.598 114.079 25.0551 115.065L11.1375 101.49C12.0272 97.8503 14.5692 90.9836 17.6038 88.2496C17.9035 87.9727 18.1213 87.6186 18.2334 87.2262C18.3455 86.8337 18.3475 86.4179 18.2393 86.0243L14.1085 71.3213C13.9949 70.9248 13.775 70.567 13.4725 70.2868C13.17 70.0066 12.7965 69.8146 12.3926 69.7318C8.37306 68.9848 2.63761 64.4547 -0.015625 61.7843L4.75067 42.9486C8.34127 41.8836 15.5543 40.6438 19.4309 41.9154C19.8214 42.0416 20.2394 42.0563 20.6379 41.9581C21.0364 41.8598 21.3997 41.6524 21.6869 41.3591L32.3475 30.4233C32.6282 30.1282 32.8226 29.7617 32.9095 29.3636C32.9963 28.9656 32.9723 28.5514 32.84 28.1661C31.4737 24.3036 32.5223 17.0395 33.4914 13.4472L52.1753 8.1701C54.8921 10.761 59.563 16.3879 60.421 20.3775C60.5146 20.7628 60.7124 21.1148 60.9926 21.3951C61.2728 21.6755 61.6247 21.8733 62.0097 21.967L76.8011 25.7342C77.1978 25.8355 77.6149 25.8237 78.0052 25.7001C78.3955 25.5765 78.7434 25.346 79.0095 25.0348C81.6628 21.9352 88.4627 19.2172 92.0692 18.2476L105.971 31.8061C105.097 35.4461 102.571 42.3128 99.5363 45.0467C99.2323 45.3208 99.0104 45.6741 98.8954 46.067C98.7804 46.46 98.7768 46.8772 98.8849 47.272L103.032 62.0545Z" fill="#D7DAE5"/>
<path d="M93.1972 350.662H206.349C211.212 350.662 215.875 348.729 219.313 345.289C222.752 341.85 224.683 337.184 224.683 332.319V60.1153C224.683 55.249 222.752 50.5818 219.314 47.1393C215.876 43.6968 211.213 41.7606 206.349 41.7564H93.1972C88.3289 41.7564 83.6599 43.6902 80.216 47.1327C76.7721 50.5752 74.8353 55.2448 74.8311 60.1153V332.319C74.8331 334.73 75.3099 337.117 76.234 339.343C77.1581 341.57 78.5115 343.593 80.2169 345.296C81.9224 346.999 83.9465 348.35 86.1736 349.271C88.4008 350.191 90.7874 350.664 93.1972 350.662Z" fill="#0E425F"/>
<path d="M101.188 350.662H207.302C212.026 350.662 216.557 348.788 219.901 345.451C223.246 342.113 225.131 337.585 225.144 332.86V59.6067C225.144 54.8725 223.264 50.3322 219.918 46.9847C216.572 43.6371 212.034 41.7564 207.302 41.7564H101.188C96.4566 41.7564 91.9184 43.6371 88.5724 46.9847C85.2265 50.3322 83.3467 54.8725 83.3467 59.6067V332.86C83.3467 337.594 85.2265 342.134 88.5724 345.481C91.9184 348.829 96.4566 350.71 101.188 350.71V350.662Z" fill="#0D344A"/>
<path d="M218.296 300.735V71.8459C218.296 67.3183 216.498 62.9761 213.298 59.7746C210.098 56.5731 205.758 54.7745 201.233 54.7745H109.37C107.129 54.7724 104.909 55.2126 102.838 56.0698C100.767 56.927 98.8851 58.1844 97.3002 59.77C95.7153 61.3556 94.4585 63.2384 93.6017 65.3105C92.745 67.3827 92.305 69.6035 92.3071 71.8459V300.735C92.305 302.978 92.745 305.199 93.6017 307.271C94.4585 309.343 95.7153 311.226 97.3002 312.811C98.8851 314.397 100.767 315.654 102.838 316.512C104.909 317.369 107.129 317.809 109.37 317.807H201.233C205.758 317.807 210.098 316.008 213.298 312.807C216.498 309.605 218.296 305.263 218.296 300.735Z" fill="#D7DAE5"/>
<path d="M189.095 47.59C189.054 48.3917 188.78 49.1639 188.305 49.8109C187.83 50.4579 187.175 50.9512 186.423 51.2296C185.67 51.5081 184.852 51.5594 184.071 51.3773C183.29 51.1952 182.579 50.7877 182.027 50.2052C181.475 49.6228 181.105 48.891 180.965 48.1006C180.825 47.3102 180.919 46.4961 181.237 45.759C181.555 45.0219 182.082 44.3943 182.753 43.9541C183.424 43.5139 184.209 43.2803 185.012 43.2824C186.123 43.3157 187.176 43.7872 187.941 44.5942C188.705 45.4012 189.12 46.4781 189.095 47.59Z" fill="#4E89AB"/>
<path d="M199.866 47.8125C199.829 48.6144 199.557 49.3877 199.085 50.0366C198.612 50.6854 197.96 51.1812 197.208 51.4626C196.457 51.7439 195.639 51.7984 194.857 51.6193C194.075 51.4401 193.363 51.0353 192.808 50.4549C192.254 49.8745 191.882 49.1441 191.739 48.3542C191.595 47.5644 191.687 46.7498 192.002 46.0115C192.317 45.2732 192.842 44.6436 193.511 44.2009C194.181 43.7582 194.965 43.5217 195.767 43.5208C196.879 43.55 197.933 44.0176 198.701 44.8216C199.469 45.6255 199.888 46.7007 199.866 47.8125Z" fill="#4E89AB"/>
<path d="M472.085 161.192C472.962 157.59 472.553 153.794 470.928 150.462C469.303 147.13 466.566 144.471 463.188 142.945C463.188 138.574 461.806 133.026 458.819 130.022C452.941 124.109 441.692 122.074 437.371 129.577C431.651 132.756 427.155 139.829 428.855 146.235C423.31 151.989 425.423 162.4 433.51 167.312C433.39 170.489 434.159 173.637 435.731 176.401C437.303 179.164 439.615 181.433 442.407 182.953C443.69 183.504 444.941 184.125 446.157 184.812C445.791 184.479 450.319 197.115 464.38 191.345C478.679 185.432 481.507 168.838 472.165 161.145L472.085 161.192Z" fill="#0D344A"/>
<path d="M404.547 235.391C404.547 235.391 405.484 234.389 405.77 234.04C406.056 233.69 406.994 232.275 406.994 232.275C406.994 232.275 409.917 227.507 409.536 227.332C409.154 227.157 408.201 227.697 407.947 227.936C407.693 228.174 407.295 228.413 407.025 228.635C406.877 228.755 406.688 228.813 406.498 228.795C406.308 228.777 406.132 228.685 406.009 228.54C405.691 228.206 406.628 227.046 407.025 226.696C408.828 225.427 410.701 224.259 412.634 223.199C413.11 222.913 416.622 213.662 418.083 210.674C420.307 205.619 422.357 200.294 422.595 199.754L425.407 176.324L434.59 173.908C434.59 173.908 431.842 199.961 431.556 201.248C431.413 201.868 425.312 213.217 425.312 213.217C421.944 218.621 418.957 223.374 418.417 224.344C418.417 224.344 417.543 227.523 417.114 229.637C416.675 231.169 416.039 232.638 415.223 234.008C414.704 235.482 413.929 236.854 412.936 238.061C411.537 239.778 412.062 237.521 412.062 237.521C412.062 237.521 414.08 233.865 413.762 233.753C413.444 233.642 412.538 235.725 411.013 237.648L409.869 239.062C408.916 240.239 407.931 239.984 408.725 238.602C409.08 237.981 409.478 237.386 409.917 236.821C410.301 236.258 410.646 235.668 410.95 235.057C411.328 234.478 411.673 233.879 411.982 233.261C411.903 233.261 411.871 232.959 411.442 233.467C411.013 233.976 410.108 235.629 409.266 236.472C408.805 236.948 407.867 238.061 407.867 238.061C407.302 238.599 406.697 239.094 406.056 239.539C405.453 239.142 406.342 237.68 407.073 237.123C407.438 236.511 407.87 235.94 408.36 235.423C408.36 235.423 409.949 232.784 409.52 232.561C409.091 232.339 404.277 238.013 403.689 237.584C403.101 237.155 404.626 235.454 404.626 235.454L404.547 235.391Z" fill="#F29191"/>
<path d="M413.698 227.093C413.698 227.093 411.013 228.683 409.583 227.364C409.757 227.668 410.006 227.923 410.307 228.104C410.607 228.285 410.949 228.386 411.299 228.397C412.224 228.249 413.071 227.789 413.698 227.093Z" fill="#EF7F7F"/>
<path d="M443.122 238.665L437.768 286.843C437.768 286.843 440.374 297.032 440.072 299.925C439.77 302.818 434.289 340.807 434.289 340.807L434.527 342.889L434.67 349.073L414.207 349.231C417.78 347.525 421.236 345.581 424.55 343.414C425.036 343.062 425.442 342.611 425.741 342.09C426.039 341.57 426.224 340.991 426.282 340.394C427.87 328.695 424.693 289.657 424.693 289.657L422.167 238.792L443.122 238.665Z" fill="#F29191"/>
<path d="M459.248 247.535C460.392 247.821 462.155 289.18 463.109 291.008C469.13 302.643 470.576 337.962 470.576 337.962L473.054 342.921L472.482 347.69C472.482 347.69 467.954 350.344 464.777 348.532L465.269 343.764L465.635 337.405L450.478 293.36L442.153 248.456L459.248 247.535Z" fill="#F29191"/>
<path d="M420.292 269.947L419.577 241.415C419.434 233.34 422.103 225.615 425.36 218.272L432.255 206.509C434.479 207.225 435.703 200.58 438.038 200.835C439.802 201.041 441.009 201.455 442.646 201.55C445.728 201.741 447.603 207.829 450.891 207.447C450.891 207.638 451.559 209.196 451.606 209.339C453.195 213.646 458.613 217.477 460.773 230.272C463.22 244.816 463.204 269.788 462.887 271.504C439.548 272.538 433.987 273.364 420.292 269.915V269.947Z" fill="#0E425F"/>
<path d="M434.765 350.646H413.651C412.856 350.646 412.666 349.931 412.936 349.533C413.492 348.707 415.954 348.119 418.735 346.8C423.596 347.324 433.78 344.018 434.527 342.873C434.988 345.162 435.194 350.551 434.765 350.646Z" fill="#B86E3C"/>
<path d="M473.039 342.889C473.039 342.889 471.164 348.294 469.13 348.135C467.097 347.976 465.333 343.732 465.333 343.732C464.931 345.552 464.792 347.42 464.92 349.279C465.285 351.25 468.177 353.269 470.147 352.379C472.117 351.489 474.818 346.943 473.039 342.842V342.889Z" fill="#B86E3C"/>
<path d="M433.764 188.055C431.803 187.783 429.872 187.325 427.997 186.688C426.313 186.084 423.501 184.781 423.501 184.781C423.501 184.781 425.09 171.333 429.062 163.195C430.65 159.841 432.366 158.204 434.686 157.823L433.764 188.055Z" fill="#9C5C33"/>
<path d="M428.665 172.843C429.253 170.65 430.587 167.789 431.35 165.802C432.637 162.464 433.018 159.317 434.162 157.966C434.766 157.25 442.646 157.362 443.694 157.25C444.092 157.25 445.664 157.33 447.19 157.409C450.919 157.659 454.632 158.115 458.311 158.776C464.666 165.055 467.844 173.495 472.61 182.73C472.61 182.73 468.988 184.797 466.128 186.116C464.873 186.672 462.489 187.578 462.489 187.578C462.489 187.578 459.455 182.285 457.723 179.98L456.929 178.248C456.929 178.248 456.579 177.882 456.5 178.073C456.42 178.264 450.971 207.463 450.971 207.463C450.971 207.463 435.909 208.862 432.049 207.002C432.049 207.002 431.334 187.562 429.92 181.872C429.396 179.758 427.791 176.356 428.76 172.843H428.665Z" fill="#B86E3C"/>
<path d="M448.206 148.476C447.625 151.623 447.322 154.814 447.3 158.013C447.539 160.684 446.363 169.315 441.041 169.347C435.718 169.378 439.341 160.382 439.849 157.775C440.357 155.168 441.152 145.059 441.152 145.059L448.206 148.476Z" fill="#F29191"/>
<path d="M440.755 148.794C440.834 146.585 441.073 144.932 441.073 144.932L448.206 148.476C448.206 148.476 447.952 149.859 447.698 151.655C446.39 151.981 445.013 151.882 443.765 151.374C442.517 150.865 441.463 149.973 440.755 148.826V148.794Z" fill="#EF7F7F"/>
<path d="M448.35 128.782C450.358 129.624 451.998 131.158 452.973 133.106C454.562 136.38 455.149 145.52 448.572 149.001C441.994 152.482 437.673 146.044 438.07 140.243C438.467 134.441 440.31 126.843 448.35 128.766V128.782Z" fill="#F29191"/>
<path d="M436.18 138.637C436.005 140.147 436.529 141.419 437.371 141.514C438.213 141.61 438.96 140.433 439.166 138.923C439.373 137.413 438.817 136.142 437.991 136.062C437.165 135.983 436.402 137.143 436.18 138.637Z" fill="#F29191"/>
<path d="M452.4 141.18C451.813 142.627 452.114 144.153 453.036 144.582C453.957 145.011 455.197 144.185 455.769 142.722C456.341 141.26 456.07 139.734 455.133 139.305C454.196 138.876 452.972 139.718 452.4 141.18Z" fill="#F29191"/>
<path d="M441.946 215.76C441.629 215.76 439.452 215.951 439.452 215.951C439.452 215.951 436.275 214.059 435.814 214.95C435.671 215.22 439.118 217.143 439.118 217.143C439.118 217.143 442.455 217.254 443.249 217.223C444.727 217.223 447.857 216.778 452.496 213.408C456.515 211.389 476.709 199.865 477.01 197.672C477.169 196.384 474.119 189.613 471.132 183.493C469.813 184.208 467.78 185.305 466.016 186.116C465.174 186.481 463.84 187.022 463.045 187.324C464.968 190.964 466.795 194.715 466.556 195.494C466.318 196.273 449.08 209.052 449.08 209.052L445.648 208.592C445.648 208.592 439.563 209.307 439.436 210.006C439.309 210.706 441.994 210.531 442.344 210.642C442.679 210.735 443 210.874 443.297 211.055C442.207 211.634 441.041 212.057 439.833 212.311C438.279 212.177 436.716 212.177 435.162 212.311C434.861 212.645 437.975 213.567 440.151 213.694C441.041 213.694 441.581 213.471 441.978 213.551C442.375 213.63 441.581 214.075 440.088 213.98C439.23 213.98 437.752 213.471 436.815 213.344C435.989 213.111 435.115 213.111 434.289 213.344C435.696 214 437.158 214.532 438.658 214.934C438.658 214.934 441.645 215.315 442.312 215.283C442.312 215.283 442.725 215.442 441.931 215.601L441.946 215.76Z" fill="#F29191"/>
<path d="M396.317 331.715C396.317 331.715 398.971 334.338 399.034 335.291C399.098 336.245 399.256 346.561 398.176 347.515C397.096 348.468 393.934 349.104 394.999 350.249C395.761 351.059 401.703 350.9 405.643 350.662C406.787 350.662 408.233 341.316 408.678 339.949C409.345 337.962 411.728 333.591 411.125 332.271C409.836 330.88 408.341 329.695 406.692 328.759C405.101 327.534 403.726 326.051 402.625 324.371L396.317 331.715Z" fill="#F29191"/>
<path d="M360.888 338.153L363.223 344.86C363.624 346.429 363.926 348.022 364.129 349.629C364.129 353.301 347.797 346.45 351.419 344.86C352.23 344.227 352.765 343.304 352.912 342.285C352.842 340.742 352.365 339.245 351.53 337.946L360.888 338.153Z" fill="#F29191"/>
<path d="M338.343 209.227L332.433 224.566C332.433 224.566 328.572 261.125 330.844 283.028C331.781 292.184 352.133 341.204 352.133 341.204L362.238 339.758L348.702 281.709L353.69 259.456L360.729 215.569L338.343 209.227Z" fill="#0E425F"/>
<path d="M366.273 210.038L371.342 227.093L378.984 278.609L405.087 326.788C405.087 326.788 401.163 332.812 396.953 333.766L359.918 285.063L339.836 224.105L340.535 210.563L366.273 210.038Z" fill="#0E425F"/>
<path d="M308.331 225.456C309.621 224.742 311.085 224.4 312.557 224.471C314.323 222.231 315.973 219.902 317.498 217.493C317.498 217.493 330.558 197.751 331.321 196.623L335.293 172.287L347.812 170.968C347.812 170.968 342.776 197.306 342.283 198.641C341.791 199.976 321.01 224.582 319.246 226.823C319.246 226.823 318.134 230.257 317.371 232.402C316.648 233.981 315.719 235.456 314.607 236.789C313.693 238.166 312.628 239.435 311.429 240.573C309.714 242.162 310.603 239.857 310.603 239.857C310.603 239.857 313.272 236.281 312.955 236.106C312.637 235.931 311.366 238.013 309.475 239.825L308.077 241.161C306.901 242.257 305.885 241.828 306.933 240.493C307.422 239.879 307.953 239.3 308.522 238.76C309.007 238.23 309.448 237.661 309.841 237.06C310.331 236.495 310.792 235.906 311.223 235.295C311.143 235.295 311.223 234.962 310.619 235.423C309.762 236.431 308.85 237.392 307.886 238.3C307.33 238.729 306.186 239.714 306.186 239.714C305.517 240.199 304.811 240.629 304.073 241.002C303.486 240.477 304.645 239.078 305.503 238.586C305.975 238.001 306.507 237.468 307.092 236.996C307.092 236.996 309.126 234.421 308.76 234.119C308.395 233.817 302.405 239.126 301.897 238.554C301.388 237.982 303.184 236.44 303.184 236.44C303.184 236.44 304.312 235.518 304.677 235.184C305.043 234.85 306.266 233.515 306.266 233.515C306.266 233.515 310.063 228.89 309.698 228.635C309.122 228.318 308.455 228.206 307.807 228.317C307.473 228.524 307.044 229.223 306.711 229.414C306.515 229.528 306.285 229.57 306.062 229.532C305.838 229.495 305.635 229.38 305.487 229.208C305.201 228.81 306.441 227.189 306.441 227.189C307.001 226.471 307.711 225.885 308.522 225.472L308.331 225.456Z" fill="#F29191"/>
<path d="M332.703 179.837L347.097 181.331C347.097 181.331 347.765 169.362 347.765 163.64C347.765 156.71 346.986 147.888 346.176 148.079C343.366 148.619 340.845 150.154 339.074 152.402C332.64 161.351 332.719 179.837 332.719 179.837H332.703Z" fill="#4E89AB"/>
<path d="M385.959 237.346C386.63 235.93 387.646 234.706 388.914 233.785C389.082 230.746 389.082 227.7 388.914 224.661C388.914 224.661 388.04 199.356 387.945 198.005L376.696 174.64L386.42 165.468C386.42 165.468 398.002 191.218 398.367 192.681C398.732 194.143 396.063 228.524 395.936 231.56C395.936 231.56 397.048 235.216 397.7 237.552C398.045 239.369 398.146 241.224 398.002 243.068C398.074 244.843 397.935 246.619 397.589 248.361C397.112 250.841 396.461 248.266 396.461 248.266C396.461 248.266 396.556 243.497 396.19 243.497C395.825 243.497 396 246.152 395.507 248.917C395.364 249.617 395.237 250.316 395.11 250.952C394.776 252.637 393.68 252.923 393.76 251.111C393.788 250.285 393.873 249.462 394.014 248.647C394.107 247.877 394.139 247.101 394.109 246.327C394.185 245.534 394.212 244.738 394.189 243.942C394.189 243.942 393.95 243.704 393.776 244.451C393.601 245.198 393.585 247.344 393.204 248.647C392.981 249.394 392.616 250.952 392.616 250.952C392.307 251.736 391.929 252.491 391.488 253.209C390.693 253.13 390.948 251.397 391.361 250.443C391.412 249.632 391.545 248.828 391.758 248.043C391.758 248.043 391.901 244.546 391.424 244.514C390.944 245.884 390.541 247.28 390.217 248.695C389.613 250.602 388.628 252.43 388.31 252.367C387.675 252.255 388.12 250.078 388.12 250.078C388.12 250.078 388.517 248.568 388.612 248.043C388.707 247.519 388.93 245.611 388.93 245.611C388.93 245.611 389.343 239.253 388.93 239.253C388.244 239.344 387.613 239.677 387.15 240.191C386.992 240.573 387.055 241.431 386.912 241.781C386.815 242 386.644 242.179 386.43 242.286C386.215 242.393 385.97 242.422 385.736 242.369C385.26 242.226 385.339 240.048 385.339 240.048C385.376 239.072 385.614 238.114 386.038 237.235L385.959 237.346Z" fill="#F29191"/>
<path d="M406.501 328.663C406.501 328.663 400.925 345.782 398.557 346.625C397.922 346.847 394.347 347.753 393.791 349.12C393.782 349.162 393.782 349.205 393.791 349.247C393.756 349.454 393.767 349.666 393.823 349.868C393.879 350.07 393.979 350.258 394.115 350.417C394.252 350.576 394.421 350.703 394.613 350.79C394.804 350.876 395.011 350.919 395.221 350.916H406.549C406.549 350.916 408.138 343.223 408.789 339.79C408.789 339.79 412.157 331.54 411.792 330.793C411.426 330.046 406.565 328.6 406.565 328.6L406.501 328.663Z" fill="#0D344A"/>
<path d="M365.066 350.885L363.223 344.86C363.223 344.86 359.267 346.577 357.297 346.291C355.342 345.917 353.406 345.445 351.498 344.876C343.65 347.499 337.199 348.771 338.407 350.885H365.066Z" fill="#0D344A"/>
<path d="M314.019 227.348C313.428 227.912 312.708 228.323 311.921 228.545C311.135 228.766 310.306 228.792 309.507 228.619C309.877 228.87 310.297 229.037 310.737 229.108C311.178 229.179 311.629 229.154 312.059 229.033C312.488 228.911 312.887 228.698 313.225 228.407C313.564 228.116 313.835 227.754 314.019 227.348Z" fill="#EF7F7F"/>
<path d="M364.383 147.459C364.383 147.459 371.993 148.508 374.011 149.986C377.256 152.964 380.347 156.104 383.273 159.396C383.273 159.396 368.704 201.153 369.26 208.576C369.817 215.999 371.421 226.998 371.421 226.998C371.421 226.998 343.141 228.794 332.417 224.566C332.417 224.566 335.801 207.733 335.801 203.314C335.801 198.896 337.708 154.707 339.058 152.45C340.408 150.193 343.141 148.826 348.305 147.681C353.468 146.537 364.383 147.491 364.383 147.491V147.459Z" fill="#4E89AB"/>
<path d="M362.302 135.538L364.177 147.904C364.177 147.904 357.297 162.623 353.166 161.335C349.719 160.27 351.848 147.252 351.848 147.252C351.848 147.252 353.723 140.243 353.166 136.762C352.61 133.281 362.302 135.538 362.302 135.538Z" fill="#F29191"/>
<path d="M353.167 136.762C352.595 133.249 362.302 135.538 362.302 135.538L362.445 136.555C362.204 137.191 361.848 137.779 361.396 138.287C359.147 140.569 356.127 141.929 352.928 142.102C353.252 140.341 353.332 138.544 353.167 136.762Z" fill="#EF7F7F"/>
<path d="M363.89 118.053C364.161 117.942 366.083 132.136 362.429 136.03C358.775 139.925 351.689 141.212 349.131 138.129C346.303 134.727 346.446 119.499 352.118 115.478C357.79 111.457 363.89 118.053 363.89 118.053Z" fill="#F29191"/>
<path d="M354.278 107.896C357.449 108.571 360.334 110.208 362.54 112.585C364.542 112.824 367.306 113.92 370.039 118.498C371.46 120.939 371.929 123.819 371.358 126.586C370.786 129.352 369.213 131.81 366.941 133.487C365.829 134.231 364.897 135.213 364.213 136.362C363.528 137.512 363.109 138.799 362.985 140.131L362.365 138.272C361.889 136.889 361.715 135.42 361.857 133.964C361.932 133.066 362.152 132.185 362.508 131.357C363.461 129.307 360.443 127.94 359.601 126.239C358.933 124.92 358.902 121.916 357.869 119.738L356.646 118.148C355.045 116.927 353.041 116.359 351.037 116.559C348.257 117.179 348.654 106.815 354.215 107.944L354.278 107.896Z" fill="#0E425F"/>
<path d="M359.776 128.75C359.776 130.499 360.538 131.929 361.555 131.929C362.572 131.929 363.382 130.562 363.414 128.846C363.446 127.129 362.651 125.667 361.651 125.667C360.65 125.667 359.808 127.034 359.776 128.75Z" fill="#F29191"/>
<path d="M392.727 174.369L380.017 184.32C376.629 180.985 373.778 177.146 371.564 172.939C368.705 166.883 371.215 149.239 374.265 150.05C381.081 151.894 392.774 174.369 392.774 174.369H392.727Z" fill="#4E89AB"/>
<path d="M282.244 108.738H324.426C329.853 108.738 335.058 106.582 338.895 102.742C342.733 98.9027 344.889 93.6953 344.889 88.2655C344.889 82.8358 342.733 77.6284 338.895 73.789C335.058 69.9496 329.853 67.7926 324.426 67.7926H282.244C276.817 67.7926 271.612 69.9496 267.774 73.789C263.937 77.6284 261.781 82.8358 261.781 88.2655C261.781 93.6953 263.937 98.9027 267.774 102.742C271.612 106.582 276.817 108.738 282.244 108.738Z" fill="#4E89AB"/>
<path d="M333.815 106.545L338.311 130.356L318.182 105.607L333.815 106.545Z" fill="#4E89AB"/>
<path d="M332.909 83.5447H272.139C271.754 83.5405 271.387 83.3846 271.116 83.1108C270.845 82.837 270.693 82.4675 270.693 82.0824C270.693 81.8931 270.731 81.7058 270.804 81.5312C270.877 81.3566 270.983 81.1981 271.118 81.0651C271.252 80.932 271.412 80.8271 271.587 80.7561C271.762 80.6852 271.95 80.6497 272.139 80.6518H332.909C333.098 80.6497 333.286 80.6852 333.461 80.7561C333.637 80.8271 333.796 80.932 333.931 81.0651C334.065 81.1981 334.172 81.3566 334.245 81.5312C334.318 81.7058 334.355 81.8931 334.355 82.0824C334.355 82.4675 334.203 82.837 333.933 83.1108C333.662 83.3846 333.294 83.5405 332.909 83.5447Z" fill="white"/>
<path d="M332.91 94.3057H272.14C271.78 94.2681 271.448 94.0986 271.206 93.83C270.964 93.5614 270.83 93.2128 270.83 92.8513C270.83 92.4898 270.964 92.1411 271.206 91.8726C271.448 91.604 271.78 91.4345 272.14 91.3969H332.91C333.269 91.4345 333.602 91.604 333.844 91.8726C334.085 92.1411 334.219 92.4898 334.219 92.8513C334.219 93.2128 334.085 93.5614 333.844 93.83C333.602 94.0986 333.269 94.2681 332.91 94.3057Z" fill="white"/>
<path d="M208.573 161.637L188.587 145.44L179.864 161.161L195.943 176.499L208.573 161.637Z" fill="#0E425F"/>
<path d="M193.511 165.722C192.792 167.504 192.617 169.459 193.007 171.341C193.397 173.222 194.336 174.946 195.704 176.294C197.072 177.643 198.809 178.556 200.695 178.918C202.581 179.28 204.532 179.075 206.302 178.329C208.072 177.583 209.582 176.329 210.64 174.726C211.699 173.123 212.259 171.242 212.251 169.32C212.242 167.399 211.665 165.523 210.592 163.929C209.519 162.336 207.998 161.096 206.221 160.366C205.036 159.876 203.765 159.627 202.483 159.632C201.201 159.636 199.932 159.895 198.75 160.393C197.568 160.891 196.497 161.619 195.598 162.533C194.699 163.448 193.989 164.532 193.511 165.722Z" fill="#0C2637"/>
<path d="M252.201 131.151C252.757 131.707 253.313 132.263 253.885 132.74C253.986 132.85 254.109 132.938 254.245 132.997C254.382 133.057 254.53 133.088 254.679 133.088C254.828 133.088 254.976 133.057 255.113 132.997C255.249 132.938 255.372 132.85 255.473 132.74C256.506 131.659 257.507 130.547 258.444 129.386C258.546 129.274 258.623 129.142 258.67 128.998C258.717 128.855 258.733 128.702 258.716 128.552C258.7 128.401 258.651 128.256 258.574 128.126C258.497 127.996 258.393 127.884 258.27 127.797L256.411 126.366C256.19 126.191 255.908 126.112 255.628 126.145C255.348 126.177 255.092 126.32 254.917 126.541C254.075 127.558 253.186 128.56 252.264 129.529C252.154 129.63 252.067 129.753 252.007 129.89C251.947 130.027 251.916 130.175 251.916 130.324C251.916 130.473 251.947 130.621 252.007 130.758C252.067 130.895 252.154 131.018 252.264 131.119L252.201 131.151Z" fill="#0E425F"/>
<path d="M257.443 126.223L258.285 126.827C258.402 126.924 258.538 126.994 258.684 127.035C258.83 127.075 258.983 127.084 259.133 127.062C259.282 127.04 259.426 126.986 259.554 126.904C259.681 126.823 259.79 126.715 259.874 126.589C260.928 125.088 261.904 123.533 262.797 121.931C262.932 121.674 262.959 121.374 262.872 121.097C262.786 120.82 262.593 120.588 262.337 120.453C262.035 120.31 261.733 120.135 261.431 119.976C261.182 119.845 260.891 119.817 260.621 119.897C260.351 119.977 260.123 120.159 259.985 120.405C259.155 121.888 258.248 123.325 257.268 124.713C257.106 124.948 257.041 125.238 257.088 125.52C257.136 125.802 257.292 126.054 257.523 126.223H257.443Z" fill="#0E425F"/>
<path d="M204.125 171.683C205.182 172.622 206.174 173.631 207.096 174.703C208.387 176.151 210.153 177.09 212.075 177.353C213.997 177.615 215.949 177.183 217.581 176.134L237.346 163.529C238.283 162.928 239.087 162.141 239.708 161.218C240.33 160.294 240.755 159.253 240.959 158.158C241.163 157.064 241.141 155.939 240.894 154.853C240.647 153.768 240.18 152.744 239.522 151.846C236.383 147.514 232.734 143.576 228.655 140.115C227.798 139.378 226.797 138.829 225.715 138.501C224.634 138.173 223.496 138.075 222.374 138.213C221.253 138.35 220.172 138.721 219.202 139.3C218.232 139.88 217.393 140.655 216.739 141.578L202.981 160.954C201.825 162.572 201.304 164.558 201.515 166.536C201.725 168.513 202.654 170.345 204.125 171.683Z" fill="#0E425F"/>
<path d="M234.708 144.709L237.775 147.888C239.248 149.429 241.272 150.324 243.403 150.378C245.535 150.432 247.601 149.639 249.15 148.174L252.566 144.995L239.618 131.389L234.931 135.84C233.741 136.998 233.051 138.576 233.01 140.237C232.968 141.897 233.578 143.508 234.708 144.725V144.709Z" fill="#0E425F"/>
<path d="M250.294 140.894L252.709 143.453C252.922 143.659 253.207 143.774 253.503 143.774C253.799 143.774 254.084 143.659 254.297 143.453L257.856 140.052C258.066 139.84 258.183 139.555 258.183 139.257C258.183 138.959 258.066 138.674 257.856 138.462L255.441 135.919C255.338 135.813 255.214 135.729 255.078 135.672C254.941 135.615 254.795 135.585 254.647 135.585C254.499 135.585 254.353 135.615 254.216 135.672C254.08 135.729 253.956 135.813 253.853 135.919L250.294 139.289C250.188 139.392 250.104 139.516 250.047 139.653C249.989 139.789 249.96 139.936 249.96 140.084C249.96 140.232 249.989 140.378 250.047 140.515C250.104 140.651 250.188 140.775 250.294 140.878V140.894Z" fill="#0E425F"/>
<path d="M245.813 136.221L248.324 138.86C248.425 138.97 248.548 139.057 248.684 139.117C248.821 139.177 248.969 139.208 249.118 139.208C249.267 139.208 249.415 139.177 249.552 139.117C249.689 139.057 249.811 138.97 249.913 138.86L253.567 135.379C253.676 135.277 253.764 135.155 253.824 135.018C253.884 134.881 253.915 134.733 253.915 134.584C253.915 134.435 253.884 134.287 253.824 134.15C253.764 134.013 253.676 133.89 253.567 133.789L251.056 131.151C250.955 131.041 250.832 130.953 250.696 130.893C250.559 130.833 250.411 130.802 250.262 130.802C250.113 130.802 249.965 130.833 249.828 130.893C249.692 130.953 249.569 131.041 249.468 131.151L245.813 134.616C245.704 134.717 245.616 134.84 245.556 134.977C245.496 135.113 245.465 135.261 245.465 135.41C245.465 135.56 245.496 135.708 245.556 135.844C245.616 135.981 245.704 136.104 245.813 136.205V136.221Z" fill="#0E425F"/>
<path d="M257.221 135.76L258.809 137.35C259.023 137.556 259.307 137.671 259.604 137.671C259.9 137.671 260.185 137.556 260.398 137.35L263.099 134.775C263.309 134.563 263.426 134.278 263.426 133.98C263.426 133.682 263.309 133.397 263.099 133.185L261.51 131.596C261.297 131.39 261.012 131.275 260.716 131.275C260.42 131.275 260.135 131.39 259.922 131.596L257.221 134.171C257.011 134.382 256.894 134.668 256.894 134.965C256.894 135.263 257.011 135.549 257.221 135.76Z" fill="#0E425F"/>
<path d="M263.37 130.705L264.005 131.373C264.216 131.583 264.502 131.7 264.8 131.7C265.097 131.7 265.383 131.583 265.594 131.373L269.073 128.067C269.279 127.854 269.394 127.569 269.394 127.272C269.394 126.976 269.279 126.691 269.073 126.477L268.438 125.826C268.225 125.62 267.94 125.505 267.643 125.505C267.347 125.505 267.062 125.62 266.849 125.826L263.37 129.132C263.164 129.345 263.049 129.63 263.049 129.927C263.049 130.223 263.164 130.508 263.37 130.721V130.705Z" fill="#0E425F"/>
<path d="M244.829 128.528C245.639 128.893 246.417 129.259 247.291 129.593C247.435 129.657 247.563 129.752 247.667 129.87C247.771 129.988 247.848 130.128 247.893 130.279C247.938 130.429 247.95 130.588 247.929 130.744C247.907 130.9 247.852 131.05 247.768 131.182C247.076 132.274 246.2 133.237 245.178 134.028C244.965 134.196 244.697 134.279 244.426 134.258C244.155 134.237 243.902 134.115 243.717 133.916L241.842 131.945C241.745 131.83 241.673 131.697 241.631 131.553C241.588 131.409 241.575 131.258 241.593 131.109C241.611 130.96 241.659 130.816 241.735 130.687C241.81 130.557 241.912 130.445 242.032 130.356C242.616 129.97 243.122 129.48 243.526 128.909C243.671 128.712 243.881 128.571 244.118 128.511C244.355 128.45 244.606 128.473 244.829 128.576V128.528Z" fill="#0E425F"/>
<path d="M246.084 127.924L247.672 128.337C247.818 128.374 247.969 128.381 248.117 128.356C248.265 128.332 248.407 128.277 248.532 128.194C248.658 128.112 248.765 128.005 248.847 127.879C248.928 127.753 248.983 127.611 249.007 127.463C249.202 126.285 249.164 125.081 248.896 123.918C248.861 123.767 248.794 123.625 248.699 123.502C248.604 123.38 248.484 123.278 248.347 123.206C248.21 123.134 248.059 123.092 247.904 123.083C247.749 123.074 247.594 123.099 247.45 123.155C246.926 123.378 246.417 123.569 245.861 123.759C245.617 123.849 245.414 124.024 245.289 124.252C245.163 124.48 245.124 124.745 245.178 124.999C245.282 125.572 245.282 126.159 245.178 126.732C245.146 126.993 245.208 127.257 245.354 127.476C245.5 127.694 245.719 127.853 245.972 127.924H246.084Z" fill="#0E425F"/>
<path d="M244.908 123.569C245.702 123.123 246.497 122.647 247.227 122.138C246.339 120.793 245.081 119.733 243.605 119.086C243.431 119.014 243.243 118.98 243.054 118.985C242.866 118.991 242.681 119.037 242.511 119.119C242.341 119.202 242.191 119.32 242.07 119.465C241.949 119.61 241.861 119.779 241.81 119.96C241.721 120.271 241.748 120.603 241.885 120.895C242.022 121.188 242.261 121.42 242.556 121.55C243.516 121.955 244.338 122.628 244.924 123.489L244.908 123.569Z" fill="#0E425F"/>
<path d="M235.868 128.464C236.104 129.26 236.504 129.996 237.044 130.626C237.2 130.791 237.287 131.01 237.287 131.238C237.287 131.466 237.2 131.685 237.044 131.85L234.359 134.409C234.256 134.503 234.133 134.573 233.999 134.612C233.865 134.652 233.724 134.661 233.586 134.638C233.448 134.615 233.317 134.561 233.204 134.48C233.09 134.399 232.996 134.293 232.929 134.171C232.083 132.581 231.467 130.879 231.102 129.116C231.079 128.989 231.083 128.859 231.113 128.734C231.143 128.608 231.199 128.49 231.276 128.388C231.354 128.285 231.452 128.199 231.564 128.135C231.676 128.072 231.8 128.033 231.928 128.019C232.945 128.019 233.946 127.86 234.963 127.781C235.177 127.76 235.392 127.817 235.568 127.943C235.743 128.069 235.867 128.254 235.916 128.464H235.868Z" fill="#0E425F"/>
<path d="M234.406 126.97L232.818 126.859C232.67 126.841 232.526 126.794 232.397 126.72C232.267 126.646 232.154 126.547 232.064 126.429C231.973 126.31 231.908 126.174 231.871 126.03C231.834 125.885 231.826 125.735 231.848 125.587C232.027 124.408 232.443 123.278 233.072 122.265C233.152 122.135 233.26 122.025 233.387 121.94C233.514 121.855 233.657 121.799 233.808 121.775C233.959 121.751 234.113 121.76 234.26 121.8C234.407 121.841 234.544 121.913 234.661 122.011L235.947 123.076C236.152 123.231 236.292 123.457 236.339 123.71C236.386 123.963 236.337 124.224 236.202 124.443C235.913 124.971 235.705 125.539 235.582 126.128C235.532 126.38 235.391 126.605 235.186 126.761C234.981 126.916 234.726 126.991 234.47 126.97H234.406Z" fill="#0E425F"/>
<path d="M236.98 123.235C236.36 122.568 235.776 121.867 235.232 121.137C236.501 120.17 238.014 119.576 239.602 119.42C239.791 119.404 239.982 119.429 240.162 119.492C240.342 119.556 240.505 119.658 240.642 119.791C240.779 119.923 240.886 120.083 240.956 120.261C241.026 120.438 241.057 120.628 241.047 120.819C241.04 121.147 240.911 121.461 240.685 121.699C240.458 121.937 240.151 122.083 239.824 122.106C238.795 122.189 237.81 122.558 236.98 123.171V123.235Z" fill="#0E425F"/>
<path d="M128.229 173.209L136.491 147.777L132.551 145.536C126.466 142.071 119.173 145.758 116.552 153.594L111.5 168.806L128.229 173.209Z" fill="#0E425F"/>
<path d="M120.508 160.223C115.742 159.921 111.563 164.499 111.198 170.443C110.832 176.388 114.375 181.459 119.142 181.761C123.908 182.063 128.086 177.501 128.468 171.54C128.849 165.579 125.29 160.525 120.524 160.223H120.508Z" fill="#0E425F"/>
<path d="M104.128 229.684L102.221 229.319C101.985 229.277 101.743 229.331 101.546 229.468C101.35 229.605 101.215 229.814 101.173 230.05C100.95 231.274 100.791 232.514 100.664 233.738C100.653 233.858 100.667 233.979 100.703 234.094C100.74 234.209 100.799 234.316 100.878 234.408C100.956 234.5 101.052 234.575 101.16 234.629C101.268 234.683 101.386 234.715 101.506 234.723L103.445 234.834C103.678 234.852 103.909 234.777 104.088 234.625C104.266 234.473 104.378 234.257 104.398 234.024C104.493 232.927 104.652 231.814 104.843 230.718C104.884 230.486 104.833 230.247 104.699 230.053C104.565 229.86 104.359 229.727 104.128 229.684Z" fill="#0E425F"/>
<path d="M102.761 235.566H101.903C101.784 235.559 101.664 235.577 101.552 235.618C101.439 235.659 101.336 235.722 101.249 235.803C101.161 235.885 101.091 235.983 101.042 236.093C100.994 236.202 100.968 236.32 100.966 236.44C100.966 237.95 100.966 239.476 101.109 240.986C101.119 241.106 101.153 241.223 101.209 241.329C101.265 241.436 101.342 241.53 101.436 241.605C101.529 241.681 101.637 241.737 101.753 241.77C101.869 241.803 101.99 241.812 102.11 241.796L102.968 241.701C103.199 241.673 103.412 241.557 103.56 241.376C103.708 241.195 103.78 240.964 103.762 240.731C103.643 239.325 103.595 237.914 103.619 236.503C103.623 236.386 103.604 236.27 103.564 236.16C103.523 236.051 103.461 235.95 103.381 235.864C103.301 235.779 103.206 235.71 103.099 235.661C102.993 235.613 102.878 235.585 102.761 235.581V235.566Z" fill="#0E425F"/>
<path d="M119.38 173.622C118.007 173.508 116.643 173.306 115.297 173.018C113.44 172.653 111.514 172.964 109.865 173.893C108.216 174.823 106.954 176.311 106.304 178.089C103.635 185.226 100.998 192.394 98.3604 199.5C97.985 200.518 97.8223 201.603 97.8822 202.687C97.9422 203.771 98.2235 204.831 98.7088 205.802C99.1941 206.774 99.8731 207.635 100.704 208.333C101.535 209.032 102.5 209.552 103.54 209.863C108.528 211.384 113.681 212.301 118.887 212.597C119.986 212.661 121.086 212.496 122.118 212.113C123.15 211.729 124.091 211.135 124.881 210.368C125.671 209.602 126.294 208.679 126.709 207.659C127.124 206.639 127.322 205.544 127.292 204.443C127.069 196.718 126.842 188.998 126.609 181.284C126.547 179.349 125.782 177.503 124.457 176.092C123.132 174.682 121.338 173.803 119.411 173.622H119.38Z" fill="#0D344A"/>
<path d="M110.276 212.422L106.686 211.628C104.959 211.258 103.156 211.585 101.669 212.537C100.181 213.489 99.1297 214.99 98.7419 216.714L97.8999 220.545L113.136 223.899L114.296 218.637C114.443 217.968 114.458 217.277 114.338 216.602C114.218 215.928 113.966 215.283 113.597 214.706C113.229 214.129 112.75 213.63 112.188 213.238C111.626 212.846 110.993 212.569 110.324 212.422H110.276Z" fill="#0E425F"/>
<path d="M106.114 223.183L103.159 222.532C102.925 222.479 102.68 222.522 102.477 222.65C102.275 222.778 102.131 222.981 102.078 223.215L101.173 227.316C101.126 227.55 101.173 227.793 101.303 227.992C101.434 228.191 101.638 228.331 101.872 228.381L104.811 229.033C105.045 229.085 105.29 229.042 105.492 228.914C105.695 228.786 105.838 228.583 105.891 228.349L106.797 224.248C106.844 224.017 106.8 223.776 106.672 223.577C106.544 223.378 106.344 223.236 106.114 223.183Z" fill="#0E425F"/>
<path d="M98.805 228.397L96.8827 228.047C96.7666 228.024 96.6471 228.025 96.5314 228.05C96.4157 228.075 96.3063 228.123 96.2098 228.191C96.1132 228.26 96.0315 228.347 95.9697 228.448C95.9078 228.549 95.8671 228.661 95.8499 228.778C95.6275 230.002 95.4528 231.226 95.3415 232.466C95.3307 232.585 95.3441 232.706 95.3809 232.82C95.4178 232.934 95.4773 233.04 95.556 233.13C95.6346 233.221 95.7308 233.295 95.8386 233.347C95.9465 233.4 96.0638 233.43 96.1836 233.436L98.106 233.563C98.3404 233.577 98.5712 233.5 98.7513 233.35C98.9314 233.199 99.0472 232.985 99.0752 232.752C99.1705 231.639 99.3294 230.543 99.52 229.446C99.5579 229.213 99.5049 228.974 99.3718 228.779C99.2388 228.583 99.0359 228.447 98.805 228.397Z" fill="#0E425F"/>
<path d="M97.5027 234.31H96.6447C96.5266 234.306 96.4088 234.325 96.2982 234.367C96.1876 234.409 96.0864 234.472 96.0006 234.553C95.9148 234.635 95.8461 234.733 95.7985 234.841C95.7509 234.949 95.7253 235.066 95.7233 235.184C95.6918 236.706 95.7395 238.229 95.8662 239.746C95.8781 239.863 95.9131 239.977 95.9691 240.08C96.0252 240.184 96.1013 240.275 96.1929 240.349C96.2845 240.423 96.3899 240.478 96.5029 240.511C96.6159 240.544 96.7343 240.554 96.8513 240.541L97.7092 240.445C97.8241 240.435 97.9359 240.403 98.0382 240.349C98.1404 240.296 98.2311 240.223 98.305 240.134C98.3788 240.045 98.4344 239.943 98.4685 239.833C98.5026 239.722 98.5145 239.607 98.5036 239.492C98.3924 238.077 98.3606 236.662 98.3765 235.264C98.3809 235.024 98.2922 234.793 98.1292 234.618C97.9661 234.443 97.7415 234.338 97.5027 234.326V234.31Z" fill="#0E425F"/>
<path d="M100.855 221.927L97.9156 221.276C97.6818 221.224 97.4368 221.266 97.2343 221.394C97.0318 221.522 96.8883 221.726 96.8352 221.959L95.9296 226.06C95.8821 226.292 95.927 226.533 96.0546 226.732C96.1822 226.931 96.3826 227.072 96.6128 227.125L99.5679 227.777C99.8017 227.829 100.047 227.787 100.249 227.658C100.452 227.53 100.595 227.327 100.648 227.093L101.554 222.992C101.601 222.759 101.554 222.516 101.423 222.316C101.292 222.117 101.088 221.977 100.855 221.927Z" fill="#0E425F"/>
<path d="M109.307 231.02L107.385 230.654C107.149 230.612 106.906 230.666 106.709 230.803C106.513 230.94 106.379 231.149 106.336 231.385C106.129 232.609 105.955 233.833 105.828 235.089C105.814 235.326 105.895 235.56 106.053 235.738C106.211 235.917 106.432 236.026 106.67 236.042L108.608 236.17C108.841 236.187 109.073 236.112 109.251 235.96C109.429 235.808 109.541 235.592 109.561 235.359C109.672 234.262 109.815 233.165 110.022 232.069C110.064 231.835 110.013 231.594 109.879 231.398C109.745 231.202 109.54 231.066 109.307 231.02Z" fill="#0E425F"/>
<path d="M108.004 236.901H107.146C106.909 236.896 106.679 236.986 106.507 237.149C106.334 237.313 106.233 237.537 106.225 237.775C106.225 239.364 106.225 240.827 106.352 242.337C106.364 242.456 106.399 242.572 106.456 242.677C106.513 242.783 106.59 242.876 106.683 242.951C106.776 243.027 106.883 243.083 106.998 243.116C107.113 243.15 107.234 243.161 107.353 243.148L108.211 243.052C108.442 243.024 108.654 242.908 108.802 242.727C108.95 242.546 109.023 242.315 109.005 242.083C108.891 240.676 108.849 239.265 108.878 237.854C108.882 237.617 108.793 237.387 108.63 237.215C108.466 237.042 108.241 236.941 108.004 236.932V236.901Z" fill="#0E425F"/>
<path d="M111.356 224.55L108.401 223.899C108.17 223.851 107.929 223.896 107.73 224.024C107.531 224.151 107.39 224.352 107.337 224.582L106.431 228.667C106.403 228.783 106.399 228.903 106.418 229.021C106.437 229.139 106.48 229.251 106.544 229.352C106.608 229.453 106.691 229.54 106.789 229.608C106.887 229.676 106.998 229.724 107.114 229.748L110.07 230.4C110.301 230.447 110.542 230.402 110.741 230.275C110.94 230.147 111.081 229.946 111.134 229.716L112.04 225.615C112.065 225.5 112.068 225.382 112.047 225.266C112.027 225.15 111.984 225.039 111.92 224.94C111.857 224.841 111.774 224.756 111.677 224.689C111.581 224.622 111.471 224.575 111.356 224.55Z" fill="#0E425F"/>
<path d="M114.852 225.885L116.758 225.536C116.992 225.494 117.233 225.545 117.429 225.679C117.625 225.813 117.761 226.018 117.807 226.251C118.029 227.491 118.188 228.715 118.315 229.955C118.326 230.074 118.313 230.194 118.276 230.309C118.239 230.423 118.18 230.528 118.101 230.619C118.022 230.71 117.926 230.783 117.818 230.836C117.71 230.888 117.593 230.918 117.473 230.924L115.535 231.051C115.302 231.065 115.073 230.988 114.896 230.837C114.718 230.686 114.606 230.473 114.582 230.241C114.471 229.128 114.328 228.031 114.137 226.934C114.095 226.701 114.146 226.46 114.28 226.264C114.414 226.068 114.619 225.932 114.852 225.885Z" fill="#0E425F"/>
<path d="M116.139 231.782H116.997C117.116 231.778 117.234 231.798 117.346 231.839C117.457 231.881 117.559 231.944 117.647 232.025C117.734 232.106 117.804 232.204 117.853 232.312C117.902 232.421 117.93 232.538 117.934 232.657C117.966 234.179 117.918 235.702 117.791 237.219C117.779 237.338 117.744 237.454 117.687 237.559C117.63 237.664 117.553 237.758 117.46 237.833C117.367 237.908 117.26 237.965 117.145 237.998C117.03 238.032 116.909 238.042 116.79 238.029L115.948 237.934C115.713 237.91 115.497 237.795 115.346 237.614C115.195 237.433 115.12 237.2 115.138 236.964C115.249 235.566 115.297 234.151 115.281 232.736C115.277 232.619 115.295 232.503 115.336 232.393C115.377 232.283 115.439 232.183 115.519 232.097C115.598 232.012 115.694 231.943 115.801 231.894C115.907 231.846 116.022 231.818 116.139 231.814V231.782Z" fill="#0E425F"/>
<path d="M114.868 219.114C114.859 219.056 114.859 218.997 114.868 218.939L115.741 218.733C115.966 218.69 116.199 218.735 116.391 218.859C116.584 218.984 116.721 219.177 116.774 219.4L117.696 223.581C117.721 223.692 117.724 223.808 117.704 223.921C117.684 224.034 117.642 224.142 117.58 224.238C117.518 224.334 117.437 224.417 117.342 224.482C117.247 224.546 117.141 224.591 117.028 224.614L114.391 225.186C114.239 225.222 114.081 225.215 113.932 225.168C113.784 225.12 113.651 225.033 113.549 224.916L114.868 219.114Z" fill="#0E425F"/>
<path d="M187.84 94.9097C187.84 52.3744 129.532 52.3585 129.532 94.9097H128.039C128.039 50.165 189.349 50.165 189.349 94.9097H187.84Z" fill="#B85742"/>
<path d="M155.905 61.4823C156.005 62.006 156.053 62.5385 156.048 63.0718C171.443 61.7048 187.824 72.3068 187.824 94.862H189.333C189.333 71.1306 172.095 59.9881 155.969 61.4823H155.905Z" fill="#B85742"/>
<path d="M155.953 61.4187V63.0082C171.523 62.0704 185.552 72.7996 185.552 94.9733L190.668 94.8143C190.668 71.528 172.302 60.4173 155.953 61.4346V61.4187Z" fill="#9C5C33"/>
<path d="M188.698 90.9995C184.916 91.079 182.072 97.1032 182.342 104.351C182.581 111.234 185.52 116.988 189.095 117.385C194.226 116.765 200.343 112.14 200.216 106.434V101.999C200.216 96.0701 194.354 90.8723 188.761 90.9995H188.698Z" fill="#9C5C33"/>
<path d="M175.765 197.354H143.418V188.786C143.418 188.188 143.536 187.595 143.765 187.043C143.995 186.49 144.331 185.988 144.754 185.566C145.178 185.144 145.681 184.809 146.234 184.582C146.787 184.354 147.38 184.238 147.978 184.24H171.205C172.412 184.24 173.569 184.719 174.424 185.571C175.279 186.423 175.761 187.579 175.765 188.786V197.354Z" fill="#0E425F"/>
<path d="M153.665 199.754C153.665 205.126 149.789 209.466 144.991 209.466C140.193 209.466 136.316 205.126 136.316 199.754C136.316 194.381 140.208 190.074 144.991 190.074C149.773 190.074 153.665 194.413 153.665 199.754Z" fill="#0E425F"/>
<path d="M187.983 245.15C187.983 250.507 184.106 254.846 179.308 254.846C174.51 254.846 170.633 250.507 170.633 245.15C170.633 239.794 174.51 235.454 179.308 235.454C184.106 235.454 187.983 239.794 187.983 245.15Z" fill="#0C2637"/>
<path d="M187.586 294.06C187.586 299.4 183.709 303.74 178.911 303.74C174.113 303.74 170.236 299.4 170.236 294.06C170.236 288.719 174.129 284.363 178.911 284.363C183.693 284.363 187.586 288.703 187.586 294.06Z" fill="#0C2637"/>
<path d="M182.724 199.754C182.724 205.126 178.847 209.466 174.049 209.466C169.251 209.466 165.375 205.126 165.375 199.754C165.375 194.381 169.267 190.074 174.049 190.074C178.831 190.074 182.724 194.413 182.724 199.754Z" fill="#0E425F"/>
<path d="M185.457 142.023C167.624 138.731 149.331 138.829 131.534 142.309C130.98 142.415 130.457 142.643 130.003 142.976C129.548 143.309 129.172 143.739 128.903 144.235C128.635 144.73 128.479 145.279 128.447 145.842C128.416 146.405 128.51 146.968 128.722 147.491C132.958 157.854 136.734 168.366 140.05 179.027C140.315 179.885 140.876 180.622 141.631 181.107C142.387 181.593 143.29 181.796 144.18 181.681H144.673C145.441 181.594 146.219 181.67 146.956 181.904C147.693 182.138 148.372 182.525 148.949 183.039C149.527 183.554 149.989 184.184 150.306 184.89C150.623 185.595 150.788 186.36 150.79 187.133L151.902 205.683L166.979 205.412L168.139 188.071C168.138 187.27 168.313 186.479 168.651 185.753C168.989 185.027 169.483 184.385 170.096 183.871C170.71 183.357 171.429 182.984 172.203 182.779C172.977 182.573 173.786 182.54 174.573 182.682H174.685C175.631 182.85 176.606 182.655 177.415 182.137C178.224 181.618 178.809 180.815 179.054 179.885C181.967 168.854 185.086 157.876 188.412 146.95C188.571 146.435 188.619 145.892 188.553 145.357C188.488 144.822 188.309 144.307 188.03 143.846C187.751 143.385 187.377 142.988 186.934 142.682C186.49 142.376 185.987 142.168 185.457 142.07V142.023Z" fill="#0D344A"/>
<path d="M179.054 179.837C181.967 168.806 185.086 157.828 188.412 146.903C188.571 146.388 188.619 145.845 188.553 145.31C188.488 144.774 188.309 144.259 188.03 143.798C187.751 143.337 187.377 142.941 186.934 142.635C186.49 142.328 185.987 142.12 185.457 142.023C167.624 138.731 149.331 138.829 131.534 142.309C130.98 142.415 130.457 142.643 130.003 142.976C129.548 143.309 129.172 143.739 128.903 144.235C128.635 144.73 128.479 145.279 128.447 145.842C128.416 146.405 128.51 146.968 128.722 147.491C132.958 157.854 136.734 168.366 140.05 179.027C140.315 179.885 140.876 180.622 141.631 181.107C142.387 181.593 143.29 181.796 144.18 181.681H144.673H144.991L146.071 181.459L173.001 182.651C173.526 182.562 174.064 182.562 174.589 182.651H174.701H175.368C176.214 182.647 177.035 182.365 177.704 181.848C178.373 181.331 178.853 180.607 179.07 179.79L179.054 179.837Z" fill="#0D344A"/>
<path d="M184.932 242.257C179.922 242.501 174.901 242.411 169.903 241.987C168.736 241.825 167.681 241.207 166.97 240.269C166.258 239.33 165.947 238.148 166.105 236.98C166.932 227.104 167.763 217.228 168.6 207.352C168.644 206.249 169.108 205.205 169.897 204.434C170.686 203.663 171.739 203.222 172.842 203.203C175.872 203.314 178.906 203.25 181.929 203.012C183.06 202.982 184.157 203.402 184.979 204.18C185.801 204.958 186.281 206.03 186.314 207.161C187.172 217.175 188.02 227.199 188.856 237.235C188.934 237.823 188.894 238.421 188.738 238.994C188.582 239.566 188.313 240.102 187.948 240.57C187.583 241.037 187.128 241.428 186.61 241.717C186.092 242.007 185.522 242.191 184.932 242.257Z" fill="#0D344A"/>
<path d="M197.325 290.308L190.715 256.038C190.524 254.725 189.879 253.519 188.892 252.631C187.906 251.743 186.64 251.227 185.314 251.174H176.146C174.821 251.23 173.557 251.747 172.571 252.634C171.585 253.522 170.939 254.726 170.745 256.038L164.151 290.308V302.087C164.102 303.192 164.447 304.279 165.125 305.152C165.803 306.026 166.77 306.63 167.853 306.855C168.174 306.903 168.501 306.903 168.822 306.855C169.958 306.656 170.983 306.052 171.707 305.155C172.432 304.257 172.806 303.128 172.762 301.975V296.031C172.684 294.589 173.181 293.176 174.143 292.1C175.105 291.025 176.454 290.374 177.894 290.292H190.604C191.567 290.354 192.466 290.792 193.108 291.512C193.751 292.232 194.084 293.175 194.036 294.139V306.855C194.468 306.857 194.896 306.774 195.296 306.611C195.695 306.447 196.059 306.207 196.366 305.903C196.673 305.599 196.917 305.237 197.084 304.839C197.251 304.44 197.338 304.013 197.34 303.581V290.277L197.325 290.308Z" fill="#0E425F"/>
<path d="M185.282 292.947C185.282 292.947 175.622 292.724 171.873 295.379C169.966 296.73 169.251 300.004 168.981 302.913C168.823 304.388 169.061 305.878 169.669 307.23C170.278 308.582 171.236 309.748 172.445 310.606L176.21 313.197C177.525 314.119 179.085 314.628 180.69 314.66L189.73 314.755C191.624 314.681 193.416 313.877 194.731 312.511C196.046 311.145 196.782 309.324 196.785 307.427C196.991 303.406 196.912 298.892 195.831 297C193.655 293.249 185.361 293.026 185.361 293.026L185.282 292.947Z" fill="#4E89AB"/>
<path d="M151.028 245.262C150.948 250.618 147.008 254.894 142.21 254.799C137.412 254.703 133.599 250.332 133.678 244.991C133.758 239.651 137.714 235.343 142.496 235.454C147.278 235.566 151.107 239.921 151.028 245.277V245.262Z" fill="#0C2637"/>
<path d="M147.739 293.996C147.739 299.353 143.704 303.628 138.921 303.533C134.139 303.438 130.31 299.066 130.374 293.71C130.437 288.353 134.409 284.077 139.191 284.173C143.974 284.268 147.803 288.639 147.739 293.996Z" fill="#0C2637"/>
<path d="M149.741 242.257C144.725 242.501 139.699 242.411 134.695 241.987C133.529 241.825 132.474 241.207 131.763 240.269C131.051 239.33 130.74 238.148 130.898 236.98C131.735 227.104 132.572 217.228 133.409 207.352C133.449 206.251 133.91 205.207 134.696 204.435C135.482 203.664 136.534 203.223 137.635 203.203C140.665 203.314 143.699 203.251 146.722 203.012C147.284 202.995 147.843 203.089 148.368 203.289C148.893 203.488 149.373 203.789 149.782 204.174C150.191 204.56 150.52 205.022 150.75 205.534C150.98 206.047 151.107 206.599 151.123 207.161C151.96 217.175 152.807 227.199 153.665 237.235C153.743 237.823 153.703 238.421 153.547 238.994C153.391 239.566 153.122 240.102 152.757 240.57C152.391 241.037 151.936 241.428 151.419 241.717C150.901 242.007 150.331 242.191 149.741 242.257Z" fill="#0D344A"/>
<path d="M157.51 290.404L151.409 256.038C151.247 254.72 150.627 253.501 149.657 252.594C148.686 251.688 147.428 251.151 146.103 251.079L136.92 250.952C135.596 250.986 134.327 251.481 133.329 252.352C132.331 253.222 131.668 254.414 131.454 255.721L124.337 289.943L124.162 301.721C124.106 302.816 124.438 303.895 125.101 304.768C125.764 305.641 126.715 306.251 127.784 306.489C128.111 306.538 128.443 306.538 128.769 306.489C129.897 306.307 130.922 305.725 131.657 304.849C132.392 303.974 132.788 302.864 132.773 301.721L132.852 295.776C132.805 294.335 133.327 292.933 134.305 291.874C135.284 290.815 136.64 290.184 138.079 290.118L150.79 290.308C151.751 290.386 152.643 290.837 153.276 291.565C153.908 292.293 154.231 293.24 154.174 294.203L153.983 306.919C154.843 306.928 155.673 306.6 156.296 306.007C156.919 305.413 157.286 304.6 157.319 303.74L157.51 290.451V290.404Z" fill="#0E425F"/>
<path d="M145.435 292.867C145.435 292.867 135.776 292.502 131.994 295.077C130.056 296.412 129.278 299.671 128.976 302.579C128.803 304.031 129.014 305.503 129.588 306.848C130.163 308.193 131.08 309.363 132.249 310.241L135.982 312.895C137.282 313.83 138.831 314.355 140.431 314.405L149.471 314.66C151.365 314.607 153.167 313.826 154.501 312.479C155.836 311.132 156.6 309.323 156.636 307.427C156.89 303.406 156.89 298.892 155.826 296.984C153.713 293.201 145.435 292.867 145.435 292.867Z" fill="#4E89AB"/>
<path d="M158.67 147.077C157.048 147.077 155.492 146.433 154.345 145.285C153.198 144.137 152.553 142.581 152.553 140.958V129.402H164.787V140.894C164.787 142.517 164.142 144.074 162.995 145.221C161.848 146.369 160.292 147.014 158.67 147.014V147.077Z" fill="#0C2637"/>
<path d="M191.208 102.508C191.208 120.103 176.385 134.393 158.082 134.393C139.779 134.393 124.94 120.088 124.94 102.508C124.94 84.9275 139.779 70.5902 158.146 70.5902C176.512 70.5902 191.271 84.8958 191.271 102.476L191.208 102.508Z" fill="#0E425F"/>
<path d="M180.039 112.49C168.632 110.124 156.857 110.167 145.467 112.617C144.876 112.701 144.273 112.666 143.695 112.513C143.117 112.36 142.576 112.093 142.103 111.727C141.63 111.361 141.236 110.903 140.943 110.382C140.651 109.86 140.466 109.285 140.399 108.691L139.112 101.872C138.793 100.592 138.976 99.2377 139.623 98.0879C140.27 96.9382 141.332 96.0797 142.592 95.6886C155.876 92.8907 169.603 92.9394 182.867 95.8316C184.118 96.2325 185.171 97.0942 185.811 98.2423C186.451 99.3904 186.631 100.739 186.314 102.015L185.075 108.548C185.011 109.14 184.828 109.714 184.538 110.235C184.249 110.756 183.857 111.214 183.388 111.581C182.919 111.949 182.38 112.218 181.805 112.374C181.23 112.53 180.629 112.57 180.039 112.49Z" fill="#0C2637"/>
<path d="M180.213 102.571C180.248 103.339 180.053 104.1 179.651 104.755C179.25 105.411 178.661 105.931 177.962 106.249C177.262 106.566 176.483 106.667 175.726 106.538C174.968 106.408 174.267 106.055 173.712 105.523C173.157 104.991 172.775 104.305 172.613 103.553C172.452 102.802 172.52 102.019 172.807 101.306C173.095 100.593 173.589 99.983 174.227 99.554C174.865 99.125 175.616 98.897 176.385 98.8994C176.877 98.8888 177.367 98.9754 177.826 99.1543C178.285 99.3331 178.704 99.6007 179.059 99.9417C179.415 100.283 179.7 100.69 179.898 101.142C180.096 101.593 180.203 102.078 180.213 102.571Z" fill="#4E89AB"/>
<path d="M125.528 94.7985C126.021 94.7985 130.04 95.3389 130.549 95.3389C130.549 75.3428 142.401 64.3116 156.048 63.1195C156.054 62.5862 156.006 62.0537 155.905 61.5299C141.607 62.8016 125.528 73.8328 125.528 94.9097V94.7985Z" fill="#B86E3C"/>
<path d="M128.293 90.6657C132.058 90.7452 134.918 96.7694 134.648 104.018C134.409 110.9 131.47 116.734 127.895 117.052C122.78 116.432 116.663 111.806 116.853 106.1V101.665C116.853 95.7362 122.716 90.5386 128.308 90.6657H128.293Z" fill="#B86E3C"/>
<path d="M148.422 104.971C148.261 104.974 148.1 104.944 147.95 104.884C147.8 104.824 147.664 104.735 147.549 104.622C147.431 104.505 147.338 104.366 147.275 104.213C147.211 104.061 147.179 103.897 147.179 103.731C147.179 103.566 147.211 103.402 147.275 103.25C147.338 103.097 147.431 102.958 147.549 102.841C148.815 101.379 150.577 100.438 152.496 100.2C154.416 99.9623 156.355 100.445 157.939 101.554C158.075 101.652 158.19 101.775 158.278 101.918C158.366 102.061 158.425 102.219 158.452 102.385C158.479 102.55 158.472 102.719 158.433 102.882C158.394 103.045 158.324 103.199 158.225 103.334C158.129 103.47 158.006 103.585 157.865 103.673C157.724 103.76 157.567 103.819 157.403 103.846C157.239 103.873 157.071 103.866 156.91 103.828C156.748 103.789 156.596 103.718 156.461 103.62C152.839 100.998 149.55 104.431 149.407 104.574C149.289 104.7 149.147 104.8 148.988 104.869C148.83 104.937 148.659 104.972 148.486 104.971H148.422Z" fill="#4E89AB"/>
<path d="M183.677 333.4C183.677 339.218 170.856 343.986 154.968 343.986C139.08 343.986 126.37 339.218 126.37 333.4C126.37 327.582 139.223 322.814 155.063 322.814C170.903 322.814 183.756 327.582 183.756 333.4H183.677Z" fill="#0E425F"/>
</g>
<defs>
<clipPath id="clip0">
<rect width="500" height="354" fill="white"/>
</clipPath>
</defs>
</svg>
