<svg width="695" height="226" viewBox="0 0 695 226" fill="none" xmlns="http://www.w3.org/2000/svg">
<path d="M501.791 10.6644H192.81V215.587H501.791V10.6644Z" fill="#CCCFDE"/>
<path d="M494.275 15.8231H174.294V225.665H494.275V15.8231Z" fill="#D7DAE5"/>
<path d="M494.263 225.665C494.263 223.666 494.167 143.796 494.024 15.8231L494.263 16.0625C406.458 16.0625 295.11 16.0625 174.318 16.1223L174.617 15.8231V225.665L174.318 225.402C362.579 225.569 491.714 225.665 494.287 225.665C491.714 225.665 362.627 225.808 174.318 225.976H174.042V225.665C174.042 161.475 174.042 90.4144 174.042 15.8231V15.488H174.378C295.169 15.488 406.578 15.5478 494.323 15.5478H494.562V15.8231C494.431 143.796 494.323 223.666 494.323 225.665H494.263Z" fill="#263139"/>
<path d="M272.069 131.732L303.56 132.174C303.32 148.931 289.197 162.612 272.069 162.612H271.901L272.069 131.732Z" fill="#B86E3C"/>
<path d="M324.111 174.306C323.893 174.367 323.666 174.387 323.44 174.365C322.962 174.365 322.315 174.365 321.537 174.437C319.778 174.437 317.396 174.437 314.475 174.509H314.416L314.344 174.437C311.531 170.906 307.892 166.322 303.967 161.343C300.903 157.441 297.982 153.779 295.588 150.691L295.768 150.75C291.962 150.75 288.802 150.691 286.504 150.691C285.45 150.691 284.565 150.619 283.918 150.619C283.614 150.627 283.309 150.603 283.009 150.547C283.31 150.508 283.614 150.488 283.918 150.487C284.565 150.487 285.45 150.487 286.504 150.415C288.802 150.415 291.962 150.415 295.768 150.343H295.864L295.935 150.415L304.314 161.068C308.252 166.059 311.842 170.643 314.619 174.234L314.452 174.162C317.372 174.162 319.754 174.234 321.513 174.234C322.291 174.234 322.938 174.234 323.416 174.306C323.64 174.29 323.863 174.29 324.087 174.306H324.111Z" fill="#263139"/>
<path d="M335.409 177.932C335.409 178.064 330.837 178.172 325.236 178.172C319.634 178.172 315.062 178.064 315.062 177.932C315.062 177.801 319.598 177.693 325.236 177.693C330.873 177.693 335.409 177.801 335.409 177.932Z" fill="#263139"/>
<path d="M335.409 181.726C335.409 181.834 330.837 181.966 325.236 181.966C319.634 181.966 315.062 181.834 315.062 181.726C315.062 181.619 319.598 181.463 325.236 181.463C330.873 181.463 335.409 181.595 335.409 181.726Z" fill="#263139"/>
<path d="M267.114 127.207L266.671 158.087C249.579 157.848 235.635 144 235.635 127.207C235.635 110.415 249.843 96.339 267.114 96.339C284.385 96.339 298.593 110.283 298.593 127.207H267.114Z" fill="#0E425F"/>
<path d="M254.798 117.129C254.623 117.194 254.443 117.242 254.259 117.273L252.691 117.5L247.066 118.29H246.958L246.898 118.23L239.334 110.893C235.743 107.303 232.476 104.083 230.13 101.737C229.016 100.54 228.059 99.6305 227.353 98.9244C226.994 98.6019 226.676 98.2361 226.407 97.8352C226.407 97.8352 226.814 98.1823 227.484 98.7927L230.369 101.498C232.763 103.772 236.066 107.003 239.669 110.522L247.162 117.919H246.994L252.667 117.285C253.302 117.285 253.864 117.177 254.259 117.141C254.654 117.105 254.798 117.141 254.798 117.141V117.129Z" fill="#263139"/>
<path d="M218.4 96.5066C218.4 96.6383 213.863 96.746 208.226 96.746C202.589 96.746 198.052 96.6383 198.052 96.5066C198.052 96.375 202.589 96.2672 208.226 96.2672C213.863 96.2672 218.4 96.363 218.4 96.5066Z" fill="#263139"/>
<path d="M218.4 100.265C218.4 100.409 213.863 100.504 208.226 100.504C202.589 100.504 198.052 100.409 198.052 100.265C198.052 100.121 202.589 100.037 208.226 100.037C213.863 100.037 218.4 100.133 218.4 100.265Z" fill="#263139"/>
<path d="M377.217 66.2368L377.073 47.0863C371.236 47.1973 365.629 49.3872 361.262 53.2624C358.471 55.6931 356.318 58.7706 354.991 62.2259C353.664 65.6811 353.203 69.4089 353.65 73.0831C353.744 74.0158 353.887 74.9428 354.081 75.86V75.9318L377.193 70.7372L377.217 66.2368Z" fill="#E9505B"/>
<path d="M377.217 66.2368L377.073 47.0863C371.236 47.1973 365.629 49.3872 361.262 53.2624C358.471 55.6931 356.318 58.7706 354.991 62.2259C353.664 65.6811 353.203 69.4089 353.65 73.0831C353.744 74.0158 353.887 74.9428 354.081 75.86V75.9318L377.193 70.7372L377.217 66.2368Z" fill="white"/>
<path d="M401.035 60.3361C399.348 56.7112 396.734 53.5953 393.458 51.3027C390.182 49.0101 386.359 47.6218 382.376 47.2778C382.142 47.2355 381.906 47.2115 381.669 47.206C381.51 47.1891 381.35 47.1891 381.191 47.206C380.724 47.206 380.281 47.206 379.802 47.206H379.73L379.862 66.3565V70.8688L402.962 75.9198C404.07 70.6633 403.392 65.1875 401.035 60.36V60.3361Z" fill="#E9505B"/>
<path d="M401.035 60.3361C399.348 56.7112 396.734 53.5953 393.458 51.3027C390.182 49.0101 386.359 47.6218 382.376 47.2778C382.142 47.2355 381.906 47.2115 381.669 47.206C381.51 47.1891 381.35 47.1891 381.191 47.206C380.724 47.206 380.281 47.206 379.802 47.206H379.73L379.862 66.3565V70.8688L402.962 75.9198C404.07 70.6633 403.392 65.1875 401.035 60.36V60.3361Z" fill="#B86E3C"/>
<path d="M378.438 73.0831L355.326 78.3495C356.508 83.6169 359.453 88.3229 363.674 91.6888C367.894 95.0547 373.137 96.8788 378.536 96.8592C383.934 96.8397 389.164 94.9777 393.36 91.5813C397.556 88.1849 400.467 83.4578 401.611 78.182L378.462 73.0831H378.438Z" fill="#0E425F"/>
<path d="M468.445 69.6719C468.445 69.8395 456.476 70.0071 441.742 70.0071C427.008 70.0071 415.039 69.8395 415.039 69.6719C415.039 69.5044 427.008 69.3608 441.742 69.3608C456.476 69.3608 468.445 69.4924 468.445 69.6719Z" fill="#0E425F"/>
<path d="M468.445 63.5917C468.445 63.7592 456.476 63.9028 441.742 63.9028C427.008 63.9028 415.039 63.7592 415.039 63.5917C415.039 63.4241 427.008 63.2924 441.742 63.2924C456.476 63.2924 468.445 63.4241 468.445 63.5917Z" fill="#0E425F"/>
<path d="M468.445 57.5234C468.445 57.6909 456.476 57.8226 441.742 57.8226C427.008 57.8226 415.039 57.6909 415.039 57.5234C415.039 57.3558 427.008 57.1762 441.742 57.1762C456.476 57.1762 468.445 57.3558 468.445 57.5234Z" fill="#0E425F"/>
<path d="M468.445 75.3333C468.445 75.5009 456.476 75.6326 441.742 75.6326C427.008 75.6326 415.039 75.5009 415.039 75.3333C415.039 75.1658 427.008 75.0221 441.742 75.0221C456.476 75.0221 468.445 75.1658 468.445 75.3333Z" fill="#0E425F"/>
<path d="M451.892 81.4615C451.892 81.6291 443.682 81.7607 433.568 81.7607C423.454 81.7607 415.243 81.6291 415.243 81.4615C415.243 81.2939 423.418 81.1503 433.568 81.1503C443.718 81.1503 451.892 81.2939 451.892 81.4615Z" fill="#0E425F"/>
<path d="M364.554 125.544H359.06V186.957H364.554V125.544Z" fill="#B86E3C"/>
<path d="M375.17 146.406H369.676V186.945H375.17V146.406Z" fill="#E9505B"/>
<path d="M385.799 133.18H380.306V187.256H385.799V133.18Z" fill="#B86E3C"/>
<path d="M396.416 127.913H390.922V186.945H396.416V127.913Z" fill="#E9505B"/>
<path d="M407.033 147.662H401.503V186.957H407.033V147.662Z" fill="#B86E3C"/>
<path d="M417.612 155.37H412.119V186.957H417.612V155.37Z" fill="#E9505B"/>
<path d="M428.241 131.851H422.748V186.945H428.241V131.851Z" fill="#B86E3C"/>
<path d="M438.858 141.798H433.364V186.957H438.858V141.798Z" fill="#E9505B"/>
<path d="M449.475 133.862H443.981V186.957H449.475V133.862Z" fill="#B86E3C"/>
<path d="M460.091 150.786H454.597V186.957H460.091V150.786Z" fill="#E9505B"/>
<path d="M470.719 143.904H465.226V186.957H470.719V143.904Z" fill="#B86E3C"/>
<path d="M472.958 191.23C472.958 191.361 446.866 191.469 414.705 191.469C382.544 191.469 356.451 191.361 356.451 191.23C356.451 191.098 382.544 191.026 414.705 191.026C446.866 191.026 472.958 191.134 472.958 191.23Z" fill="#263139"/>
<path d="M366.9 196.077C365.553 196.277 364.19 196.345 362.831 196.281C361.459 196.346 360.084 196.278 358.725 196.077C360.081 195.847 361.458 195.771 362.831 195.85C364.191 195.772 365.556 195.848 366.9 196.077Z" fill="#263139"/>
<path d="M380.437 196.365C377.197 196.684 373.934 196.684 370.694 196.365C373.934 196.045 377.197 196.045 380.437 196.365V196.365Z" fill="#263139"/>
<path d="M391.951 196.365C388.712 196.684 385.448 196.684 382.208 196.365C385.448 196.045 388.712 196.045 391.951 196.365V196.365Z" fill="#263139"/>
<path d="M403.538 196.365C401.922 196.609 400.286 196.689 398.654 196.604C397.023 196.691 395.386 196.611 393.771 196.365C395.387 196.125 397.023 196.045 398.654 196.125C400.286 196.047 401.922 196.127 403.538 196.365V196.365Z" fill="#263139"/>
<path d="M415.075 196.365C413.46 196.611 411.824 196.691 410.192 196.604C408.56 196.689 406.924 196.609 405.309 196.365C406.925 196.127 408.56 196.047 410.192 196.125C411.824 196.045 413.459 196.125 415.075 196.365V196.365Z" fill="#263139"/>
<path d="M426.662 196.365C423.422 196.684 420.159 196.684 416.919 196.365C420.159 196.045 423.422 196.045 426.662 196.365V196.365Z" fill="#263139"/>
<path d="M438.152 196.365C434.912 196.684 431.649 196.684 428.409 196.365C431.649 196.045 434.912 196.045 438.152 196.365V196.365Z" fill="#263139"/>
<path d="M449.714 196.365C446.466 196.684 443.195 196.684 439.947 196.365C443.195 196.045 446.466 196.045 449.714 196.365Z" fill="#263139"/>
<path d="M461.252 196.365C458.012 196.684 454.749 196.684 451.509 196.365C454.749 196.045 458.012 196.045 461.252 196.365V196.365Z" fill="#263139"/>
<path d="M472.79 196.365C469.55 196.684 466.287 196.684 463.047 196.365C466.287 196.045 469.55 196.045 472.79 196.365V196.365Z" fill="#263139"/>
<path d="M375.17 146.406H369.676V186.945H375.17V146.406Z" fill="white"/>
<path d="M396.416 127.913H390.922V186.945H396.416V127.913Z" fill="white"/>
<path d="M417.612 155.37H412.119V186.957H417.612V155.37Z" fill="white"/>
<path d="M438.858 141.798H433.364V186.957H438.858V141.798Z" fill="white"/>
<path d="M460.091 150.786H454.597V186.957H460.091V150.786Z" fill="white"/>
<path d="M213.169 55.2492C213.169 56.2956 212.858 57.3184 212.277 58.1884C211.696 59.0584 210.869 59.7364 209.903 60.1368C208.936 60.5373 207.872 60.642 206.846 60.4379C205.82 60.2338 204.877 59.7299 204.137 58.99C203.398 58.2502 202.894 57.3076 202.69 56.2813C202.485 55.2551 202.59 54.1914 202.991 53.2247C203.391 52.258 204.069 51.4318 204.939 50.8505C205.809 50.2692 206.832 49.9589 207.878 49.9589C209.281 49.9589 210.627 50.5163 211.619 51.5084C212.611 52.5005 213.169 53.8462 213.169 55.2492V55.2492Z" fill="#B86E3C"/>
<path d="M304.17 51.072C304.17 51.2396 286.324 51.3832 264.301 51.3832C242.278 51.3832 224.432 51.2396 224.432 51.072C224.432 50.9044 242.278 50.7728 264.301 50.7728C286.324 50.7728 304.17 50.9044 304.17 51.072Z" fill="#B86E3C"/>
<path d="M256.461 57.5234C256.047 57.6031 255.626 57.6352 255.205 57.6191L251.853 57.7268C248.993 57.7987 245.091 57.8226 240.758 57.8226C236.425 57.8226 232.475 57.8226 229.627 57.7268L226.263 57.6191C225.862 57.6322 225.461 57.6001 225.066 57.5234C225.457 57.4212 225.86 57.3769 226.263 57.3917L229.627 57.284C232.475 57.284 236.413 57.2121 240.758 57.2121C245.103 57.2121 248.993 57.2121 251.853 57.284L255.205 57.3917C255.628 57.3729 256.051 57.4172 256.461 57.5234V57.5234Z" fill="#B86E3C"/>
<path d="M167.782 34.7821H0.311035V225.928H167.782V34.7821Z" fill="#D7DAE5"/>
<path d="M167.77 225.94V225.019C167.77 224.408 167.77 223.534 167.77 222.337C167.77 220.003 167.77 216.544 167.77 212.032C167.77 203.043 167.77 189.806 167.699 173.049C167.699 139.535 167.627 91.7908 167.567 34.7941L167.83 35.0933C118.542 35.0933 61.2338 35.0933 0.394982 35.0933L0.562548 34.7821C0.562548 105.244 0.562548 170.966 0.562548 225.928L0.299227 225.653C50.677 225.653 92.4611 225.761 121.761 225.797C136.411 225.797 147.878 225.797 155.718 225.797C159.655 225.797 162.636 225.797 164.67 225.797C166.705 225.797 167.758 225.797 167.758 225.797H164.754C162.72 225.797 159.739 225.797 155.837 225.797C148.033 225.797 136.555 225.797 121.941 225.856C92.6526 225.856 50.7608 225.964 0.311198 226H0.0718161V225.761C0.0718161 170.799 0.0718144 105.076 0 34.6145V34.3034H0.335137C61.1739 34.3034 118.482 34.3034 167.77 34.3034H168.046V34.7821C168.046 91.8387 167.938 139.643 167.914 173.204C167.914 189.961 167.842 203.127 167.842 212.152C167.842 216.628 167.842 220.087 167.842 222.397V225.09C167.842 225.665 167.842 225.976 167.842 225.976L167.77 225.94Z" fill="#263139"/>
<path d="M153.384 132.402C153.324 132.498 151.528 131.444 147.998 130.331C143.001 128.799 137.723 128.414 132.557 129.206C129.015 129.743 125.58 130.842 122.384 132.462C118.75 134.415 115.383 136.829 112.366 139.643C109.074 142.564 105.819 145.855 102.06 148.907C98.2246 152.18 93.7367 154.599 88.8943 156.005C86.3909 156.654 83.7857 156.812 81.2221 156.472C78.7509 156.1 76.3499 155.358 74.1005 154.269C69.9796 152.137 65.9834 149.771 62.1314 147.184C58.688 144.908 54.8957 143.209 50.9045 142.157C47.4205 141.314 43.8235 141.039 40.252 141.343C35.0427 141.808 30.006 143.445 25.5181 146.13C22.3702 148.057 20.8741 149.518 20.8022 149.422C21.1209 149.04 21.4735 148.687 21.8555 148.369C22.9196 147.402 24.0648 146.529 25.2787 145.759C29.7685 142.875 34.8723 141.083 40.1802 140.529C43.8453 140.156 47.5468 140.399 51.1319 141.247C55.2382 142.259 59.1407 143.968 62.6701 146.298C66.4957 148.821 70.4509 151.143 74.5194 153.252C78.8501 155.467 83.8308 156.057 88.5592 154.916C93.2341 153.535 97.5682 151.191 101.282 148.033C104.981 145.041 108.272 141.786 111.6 138.865C114.699 136.013 118.155 133.575 121.881 131.612C125.181 129.982 128.721 128.891 132.366 128.38C137.648 127.648 143.028 128.173 148.069 129.912C149.431 130.389 150.758 130.957 152.043 131.612C152.494 131.83 152.922 132.091 153.324 132.39L153.384 132.402Z" fill="#B86E3C"/>
<path d="M60.6348 158.052H46.4155V196.556H60.6348V158.052Z" fill="#B86E3C"/>
<path d="M121.055 158.052H106.8V196.556H121.055V158.052Z" fill="#B86E3C"/>
<path d="M141.211 135.454H126.956V196.556H141.211V135.454Z" fill="#B86E3C"/>
<path d="M42.2154 184.443H27.9961V197.406H42.2154V184.443Z" fill="#B86E3C"/>
<path d="M80.7913 175.455H66.5361V196.556H80.7913V175.455Z" fill="#B86E3C"/>
<path d="M100.947 170.595H86.6919V196.556H100.947V170.595Z" fill="#B86E3C"/>
<path d="M61.2096 201.152C61.2096 201.451 57.7745 201.727 53.5374 201.727C49.3004 201.727 45.8413 201.451 45.8413 201.152C45.8413 200.853 49.2645 200.578 53.5374 200.578C57.8104 200.578 61.2096 200.841 61.2096 201.152Z" fill="#263139"/>
<path d="M43.496 201.152C43.496 201.451 40.0728 201.727 35.8238 201.727C31.5748 201.727 28.0918 201.404 28.0918 201.152C28.0918 200.901 31.515 200.578 35.7879 200.578C40.0609 200.578 43.4601 200.841 43.4601 201.152H43.496Z" fill="#263139"/>
<path d="M143.988 201.152C143.988 201.451 140.122 201.727 135.31 201.727C130.499 201.727 126.621 201.451 126.621 201.152C126.621 200.853 130.487 200.578 135.31 200.578C140.134 200.578 143.988 200.841 143.988 201.152Z" fill="#263139"/>
<path d="M122.851 201.152C122.851 201.451 118.949 201.727 114.173 201.727C109.398 201.727 105.448 201.451 105.448 201.152C105.448 200.853 109.35 200.578 114.173 200.578C118.997 200.578 122.851 200.841 122.851 201.152Z" fill="#263139"/>
<path d="M100.935 201.152C100.935 201.451 97.4761 201.727 93.2391 201.727C89.002 201.727 85.543 201.404 85.543 201.152C85.543 200.901 89.002 200.578 93.251 200.578C97.5001 200.578 100.947 200.841 100.947 201.152H100.935Z" fill="#263139"/>
<path d="M80.1093 201.152C80.1093 201.451 76.6741 201.727 72.4371 201.727C68.2 201.727 64.729 201.451 64.729 201.152C64.729 200.853 68.1641 200.578 72.4371 200.578C76.71 200.578 80.1093 200.841 80.1093 201.152Z" fill="#263139"/>
<path d="M143.988 62.6701H27.6484V110.989H143.988V62.6701Z" fill="#CCCFDE"/>
<path d="M51.8025 77.9426C51.8056 78.653 51.6688 79.3572 51.3998 80.0148C51.1309 80.6723 50.735 81.2705 50.2348 81.7751C49.7347 82.2797 49.1401 82.6808 48.4849 82.9556C47.8297 83.2304 47.1268 83.3734 46.4164 83.3766C44.9752 83.3766 43.5931 82.804 42.574 81.785C41.5549 80.7659 40.9824 79.3838 40.9824 77.9426C40.9824 77.2296 41.1231 76.5235 41.3963 75.8649C41.6695 75.2063 42.07 74.6081 42.5747 74.1044C43.0795 73.6008 43.6786 73.2017 44.3378 72.9299C44.997 72.6581 45.7033 72.519 46.4164 72.5206C47.8491 72.5269 49.2209 73.1014 50.2306 74.1178C51.2404 75.1343 51.8056 76.5098 51.8025 77.9426V77.9426Z" fill="#0E425F"/>
<path d="M95.0342 74.1723H57.2358V76.2789H95.0342V74.1723Z" fill="#0E425F"/>
<path d="M130.762 78.96H57.2358V81.0665H130.762V78.96Z" fill="white"/>
<path d="M51.802 94.6275C51.8068 95.3384 51.671 96.0432 51.4026 96.7015C51.1342 97.3598 50.7384 97.9586 50.2379 98.4635C49.7375 98.9684 49.1422 99.3695 48.4863 99.6437C47.8304 99.9179 47.1268 100.06 46.4159 100.061C45.7015 100.065 44.9934 99.9262 44.3327 99.6542C43.672 99.3823 43.0717 98.9821 42.5665 98.4769C42.0613 97.9717 41.6611 97.3714 41.3892 96.7107C41.1172 96.05 40.9788 95.342 40.982 94.6275C40.982 93.1863 41.5545 91.8041 42.5736 90.7851C43.5926 89.766 44.9748 89.1935 46.4159 89.1935C47.8498 89.203 49.2215 89.7801 50.2309 90.7985C51.2403 91.8168 51.8052 93.1936 51.802 94.6275Z" fill="#B86E3C"/>
<path d="M76.542 90.8692H57.2358V92.9757H76.542V90.8692Z" fill="#B86E3C"/>
<path d="M130.762 95.6209H57.2358V97.7275H130.762V95.6209Z" fill="white"/>
<path d="M693.871 0.490723H509.979V210.368H693.871V0.490723Z" fill="#D7DAE5"/>
<path d="M693.859 210.368C693.859 210.368 693.859 210.021 693.859 209.387V206.466C693.859 203.881 693.859 200.087 693.859 195.132C693.859 185.221 693.859 170.739 693.787 152.318C693.787 115.502 693.679 63.089 693.655 0.490736L693.918 0.754057C639.77 0.754057 576.837 0.754057 510.038 0.754057L510.337 0.454831C510.337 77.8468 510.337 150.068 510.265 210.332L510.038 210.057C565.335 210.129 611.272 210.165 643.409 210.201C659.483 210.201 672.135 210.261 680.693 210.261C685.001 210.261 688.293 210.261 690.531 210.261C692.769 210.261 693.918 210.261 693.918 210.261C693.918 210.261 692.805 210.261 690.603 210.261C688.401 210.261 685.061 210.261 680.788 210.261C672.206 210.261 659.627 210.261 643.576 210.321C611.404 210.321 565.406 210.392 510.038 210.464H509.762V210.189C509.762 149.865 509.762 77.7032 509.69 0.311208V0H510.038C576.837 0 639.77 0 693.918 0H694.194V0.275302C694.122 62.9334 694.098 115.43 694.062 152.282C694.062 170.667 693.99 185.162 693.99 195.036C693.99 199.979 693.99 203.749 693.99 206.335C693.99 207.532 693.99 208.537 693.99 209.207V210.165L693.859 210.368Z" fill="#D7DAE5"/>
<path d="M673.643 17.2833H524.664V136.783H673.643V17.2833Z" fill="#CCCFDE"/>
<path d="M539.961 115.537H535.077V116.926H539.961V115.537Z" fill="#0E425F"/>
<path d="M552.385 123.066H546.137V124.454H552.385V123.066Z" fill="#0E425F"/>
<path d="M574.169 123.066H567.921V124.454H574.169V123.066Z" fill="#0E425F"/>
<path d="M595.916 123.066H589.668V124.454H595.916V123.066Z" fill="#0E425F"/>
<path d="M617.7 123.066H611.452V124.454H617.7V123.066Z" fill="#0E425F"/>
<path d="M639.472 123.066H633.2V124.454H639.472V123.066Z" fill="#0E425F"/>
<path d="M661.231 123.066H654.983V124.454H661.231V123.066Z" fill="#0E425F"/>
<path d="M539.961 96.7101H535.077V98.1344H539.961V96.7101Z" fill="#0E425F"/>
<path d="M539.961 61.2816H535.077V62.706H539.961V61.2816Z" fill="#0E425F"/>
<path d="M539.961 43.5076H535.077V44.896H539.961V43.5076Z" fill="#0E425F"/>
<path d="M540.2 78.9959H535.317V80.4202H540.2V78.9959Z" fill="#0E425F"/>
<path d="M661.052 116.926C661.052 116.926 660.884 116.926 660.513 116.926C660.142 116.926 659.627 116.926 658.981 116.926C657.593 116.926 655.63 116.926 653.08 116.998L631.296 117.093L559.482 117.201H542.199V116.854C542.271 92.9159 542.306 71.7666 542.306 56.6017C542.378 49.0732 542.378 42.9929 542.402 38.8277C542.402 36.757 542.402 35.1292 542.474 34.04C542.454 33.6413 542.454 33.2418 542.474 32.8431V32.3883C542.474 32.3883 542.474 32.5559 542.474 32.8311C542.474 33.1064 542.474 33.5493 542.474 34.0281C542.474 35.1531 542.474 36.7809 542.474 38.8157C542.474 42.9809 542.474 49.0612 542.546 56.5898C542.546 71.7546 542.618 92.856 542.642 116.842L542.342 116.543H559.518L631.332 116.639L653.116 116.746L659.017 116.806C659.663 116.806 660.214 116.806 660.549 116.806L661.052 116.926Z" fill="#0E425F"/>
<path d="M662.452 79.714C662.452 79.8816 636.658 80.0132 604.869 80.0132C573.079 80.0132 547.297 79.8816 547.297 79.714C547.297 79.5464 573.079 79.4028 604.869 79.4028C636.658 79.4028 662.452 79.5345 662.452 79.714Z" fill="#0E425F"/>
<path d="M662.452 61.9998C662.452 62.1673 636.658 62.299 604.869 62.299C573.079 62.299 547.297 62.1673 547.297 61.9998C547.297 61.8322 573.079 61.6886 604.869 61.6886C636.658 61.6886 662.452 61.8322 662.452 61.9998Z" fill="#0E425F"/>
<path d="M662.452 44.2257C662.452 44.3933 636.658 44.525 604.869 44.525C573.079 44.525 547.297 44.3933 547.297 44.2257C547.297 44.0582 573.079 43.8786 604.869 43.8786C636.658 43.8786 662.452 44.0462 662.452 44.2257Z" fill="#0E425F"/>
<path d="M662.452 97.4162C662.452 97.5838 636.658 97.7275 604.869 97.7275C573.079 97.7275 547.297 97.5838 547.297 97.4162C547.297 97.2487 573.079 97.117 604.869 97.117C636.658 97.117 662.452 97.2487 662.452 97.4162Z" fill="#0E425F"/>
<path d="M548.447 113.132V97.4162L558.214 82.2155L564.869 87.3144L578.514 66.1411L586.545 71.8024L597.748 52.257L606.832 59.6538L620.477 33.7408L635.163 62.7059L647.072 48.2234L661.052 44.2257V113.132H548.447Z" fill="#0E425F"/>
<path d="M662.452 38.6242C662.373 38.6406 662.291 38.6406 662.212 38.6242C661.973 38.6095 661.733 38.6095 661.494 38.6242C660.824 38.6242 659.866 38.6242 658.645 38.6242C656.132 38.6242 652.505 38.6242 647.873 38.696L648.017 38.6242C644.893 42.7296 640.991 47.8284 636.515 53.6932L636.443 53.789H636.311C627.933 53.789 618.154 53.789 607.585 53.789L607.825 53.6573C604.019 59.965 599.949 66.8233 595.712 73.8132C591.607 80.6595 587.597 87.3144 583.839 93.5503L583.599 93.9692L583.324 93.5862C577.663 85.7823 572.396 78.5291 567.764 72.1496H568.171L553.928 94.3043C552.228 96.9495 550.864 98.9842 549.918 100.444C549.476 101.127 549.14 101.641 548.865 102.036C548.59 102.431 548.494 102.551 548.494 102.551L548.805 101.976C549.033 101.593 549.38 101.055 549.823 100.349C550.696 98.8885 552.025 96.8178 553.689 94.1726C557.04 88.8105 561.899 81.1383 567.728 71.8743L567.932 71.575L568.171 71.8743C572.815 78.2538 578.118 85.4831 583.815 93.2869H583.336C587.106 87.0391 591.08 80.3962 595.209 73.538C599.423 66.4882 603.588 59.7017 607.322 53.3821L607.43 53.2504H607.597C618.214 53.2504 628.017 53.2504 636.323 53.2504L636.156 53.3462L647.754 38.3848V38.325H647.849C652.434 38.325 656.06 38.3848 658.622 38.4207C659.818 38.4207 660.8 38.4207 661.47 38.4207C661.709 38.3988 661.949 38.3988 662.188 38.4207L662.452 38.6242Z" fill="#B86E3C"/>
<path d="M572.685 77.1646C572.675 77.4514 572.553 77.7229 572.345 77.9201C572.136 78.1173 571.858 78.2243 571.571 78.2179C571.421 78.2338 571.269 78.2179 571.126 78.1713C570.982 78.1247 570.85 78.0484 570.738 77.9474C570.625 77.8464 570.536 77.7229 570.474 77.5849C570.413 77.447 570.381 77.2976 570.381 77.1466C570.381 76.9956 570.413 76.8463 570.474 76.7083C570.536 76.5703 570.625 76.4469 570.738 76.3458C570.85 76.2448 570.982 76.1686 571.126 76.122C571.269 76.0754 571.421 76.0595 571.571 76.0754C571.716 76.0738 571.86 76.1007 571.994 76.1546C572.128 76.2085 572.25 76.2883 572.354 76.3894C572.457 76.4906 572.539 76.6111 572.596 76.7441C572.653 76.8771 572.683 77.02 572.685 77.1646V77.1646Z" fill="#B86E3C"/>
<path d="M605.85 58.2654C605.841 58.5555 605.72 58.8307 605.512 59.0337C605.305 59.2367 605.027 59.3517 604.737 59.3546C604.449 59.3515 604.174 59.2357 603.97 59.0321C603.766 58.8286 603.651 58.5533 603.647 58.2654C603.649 58.1245 603.679 57.9853 603.734 57.8558C603.79 57.7264 603.871 57.6093 603.972 57.5114C604.073 57.4134 604.193 57.3365 604.324 57.2851C604.456 57.2338 604.596 57.209 604.737 57.2121C605.024 57.2057 605.301 57.3127 605.51 57.5099C605.718 57.7071 605.84 57.9786 605.85 58.2654V58.2654Z" fill="#B86E3C"/>
<path d="M631.668 53.6214C631.667 53.7655 631.636 53.9078 631.58 54.0401C631.523 54.1725 631.44 54.2922 631.336 54.3924C631.233 54.4926 631.111 54.5712 630.976 54.6238C630.842 54.6764 630.699 54.7018 630.555 54.6986C630.272 54.6986 630.002 54.5864 629.802 54.3866C629.602 54.1869 629.49 53.9159 629.49 53.6334C629.49 53.3509 629.602 53.0799 629.802 52.8801C630.002 52.6804 630.272 52.5681 630.555 52.5681C630.842 52.5617 631.12 52.6687 631.328 52.8659C631.537 53.0631 631.659 53.3346 631.668 53.6214V53.6214Z" fill="#B86E3C"/>
<path d="M666.929 154.557C666.929 154.724 635.51 154.856 596.73 154.856C557.951 154.856 526.532 154.724 526.532 154.557C526.532 154.389 557.951 154.245 596.73 154.245C635.51 154.245 666.929 154.389 666.929 154.557Z" fill="#263139"/>
<path d="M666.929 162.157C666.929 162.325 635.51 162.456 596.73 162.456C557.951 162.456 526.532 162.325 526.532 162.157C526.532 161.989 557.951 161.81 596.73 161.81C635.51 161.81 666.929 161.989 666.929 162.157Z" fill="#263139"/>
<path d="M666.929 169.721C666.929 169.889 635.51 170.057 596.73 170.057C557.951 170.057 526.532 169.889 526.532 169.721C526.532 169.554 557.951 169.41 596.73 169.41C635.51 169.41 666.929 169.554 666.929 169.721Z" fill="#263139"/>
<path d="M666.929 177.322C666.929 177.489 635.51 177.621 596.73 177.621C557.951 177.621 526.532 177.489 526.532 177.322C526.532 177.154 557.951 177.011 596.73 177.011C635.51 177.011 666.929 177.154 666.929 177.322Z" fill="#263139"/>
</svg>
