<svg width="206" height="226" viewBox="0 0 221 242" fill="none" xmlns="http://www.w3.org/2000/svg">
<g clip-path="url(#clip0)">
<path d="M110.504 151.683C110.504 151.683 70.6042 187.241 53.2384 184.529C35.8727 181.816 20.5825 155.785 20.5825 155.785C20.5825 155.785 49.8397 150.889 48.9053 130.076C42.9678 1.54637 110.504 13.9006 110.504 13.9006V151.683Z" fill="#0E425F"/>
<path d="M110.504 151.683C110.504 151.683 150.421 187.241 167.795 184.529C185.169 181.816 200.426 155.785 200.426 155.785C200.426 155.785 171.731 150.914 172.111 130.076C174.592 -0.330754 110.504 13.9006 110.504 13.9006V151.683Z" fill="#0E425F"/>
<path d="M110.504 242H68.9588L59.8872 170.198L110.504 155.785V242Z" fill="#F6BEA9"/>
<path d="M110.504 176.135L81.5776 165.584V107.426H110.504V176.135Z" fill="#F6BEA9"/>
<path d="M0 242H110.504L65.5434 168.585L49.5338 170.239C0 170.239 0 242.033 0 242.033V242Z" fill="#B86E3C"/>
<path d="M110.504 242H152.058L161.129 170.198L110.504 155.785V242Z" fill="#F5A48B"/>
<path d="M110.504 176.135L139.447 165.584V107.426H110.504V176.135Z" fill="#F6BEA9"/>
<path d="M221.008 242H110.504L155.465 168.585L171.475 170.239C221.008 170.239 221.008 242.033 221.008 242.033V242Z" fill="#B86E3C"/>
<path d="M110.504 176.135L139.447 165.584V107.426H110.504V176.135Z" fill="#F5A48B"/>
<path d="M67.7264 66.3856L66.6679 65.9391C60.9537 63.4997 59.5396 63.1772 59.9697 76.0441C59.9697 76.0441 59.8952 99.1981 68.4706 100.348C69.196 103.872 70.4008 107.28 72.0513 110.477C80.5109 125.85 95.3462 143.554 110.537 143.554V32.4238C63.4676 26.6353 72.2828 46.9281 67.7594 66.3856H67.7264Z" fill="#FBD4C3"/>
<path d="M153.306 66.3856L154.34 65.9391C160.079 63.4997 161.468 63.1772 161.063 76.0441C161.063 76.0441 161.138 99.1981 152.537 100.348C151.823 103.875 150.618 107.285 148.957 110.477C140.497 125.85 125.687 143.554 110.471 143.554V32.4238C157.565 26.6353 148.725 46.9281 153.273 66.3856H153.306Z" fill="#F6BEA9"/>
<path d="M153.307 66.3857C153.307 66.3857 96.0328 55.5777 89.7397 21.6159C89.7397 21.6159 148.668 5.46599 153.307 50.3516C153.704 54.3373 153.307 66.3857 153.307 66.3857Z" fill="#0E425F"/>
<path d="M67.5114 66.3856C67.5114 66.3856 67.0897 51.9475 67.5114 47.1679C70.7696 10.9485 109.049 21.6158 109.049 21.6158C109.049 21.6158 84.6456 64.4176 67.5114 66.3856Z" fill="#0E425F"/>
<path d="M41.8184 210.354C41.8184 210.354 53.0069 173.506 65.5433 168.585C75.111 164.856 81.5777 143.455 81.5777 143.455C81.5777 143.455 80.8086 170.206 85.208 189.763C88.5901 204.747 110.504 242 110.504 242L82.231 213.099C78.4322 209.218 73.5908 206.52 68.2917 205.331C62.9926 204.143 57.4626 204.514 52.3701 206.401L41.8184 210.354Z" fill="#E1F2F7"/>
<path d="M179.19 210.354C179.19 210.354 167.977 173.506 155.465 168.585C145.897 164.856 139.455 143.455 139.455 143.455C139.455 143.455 140.224 170.206 135.817 189.763C132.418 204.747 110.504 242 110.504 242L138.777 213.099C142.576 209.218 147.417 206.52 152.717 205.331C158.016 204.143 163.546 204.514 168.638 206.401L179.19 210.354Z" fill="#BFE1E5"/>
<path d="M141.002 130.638H115.143V126.983H141.002C143.855 126.983 146.638 126.1 148.967 124.453C151.297 122.806 153.059 120.477 154.01 117.787L158.607 104.78L162.072 106.004L157.483 119.011C156.276 122.418 154.044 125.368 151.093 127.454C148.141 129.541 144.616 130.661 141.002 130.663V130.638Z" fill="#447594"/>
<path d="M118.939 135.087H124.976C126.64 135.087 128.237 134.425 129.414 133.248C130.591 132.071 131.252 130.475 131.252 128.81H112.646C112.646 130.475 113.307 132.071 114.484 133.248C115.661 134.425 117.258 135.087 118.922 135.087H118.939Z" fill="#0D344A"/>
<path d="M124.976 122.526H118.939C118.114 122.526 117.297 122.688 116.535 123.004C115.773 123.32 115.081 123.783 114.498 124.367C113.915 124.951 113.453 125.643 113.138 126.406C112.823 127.168 112.661 127.985 112.662 128.81H131.269C131.27 127.985 131.108 127.168 130.793 126.406C130.478 125.643 130.016 124.951 129.433 124.367C128.85 123.783 128.158 123.32 127.396 123.004C126.634 122.688 125.817 122.526 124.992 122.526H124.976Z" fill="#4E89AB"/>
<path d="M106.171 0C78.7413 0 56.447 22.4345 56.447 50.0042V58.381H63.691V50.0042C63.6712 38.7084 68.1322 27.8657 76.0957 19.8543C84.0592 11.8429 94.875 7.31684 106.171 7.26869H110.504V0H106.171Z" fill="#4E89AB"/>
<path d="M114.862 0H110.504V7.26869H114.862C126.158 7.31684 136.974 11.8429 144.937 19.8543C152.901 27.8657 157.362 38.7084 157.342 50.0042V58.381H164.586V50.0042C164.586 22.4345 142.259 0 114.862 0Z" fill="#447594"/>
<path d="M176.395 59.3071C172.649 54.6433 166.471 54.2216 166.471 54.2216C164.466 53.6912 162.357 53.6912 160.352 54.2216V108.799C162.356 109.337 164.467 109.337 166.471 108.799C166.471 108.799 172.665 108.402 176.395 103.713C180.124 99.0244 180.124 63.9793 176.395 59.3154V59.3071Z" fill="#0E2436"/>
<path d="M152.86 64.9055V98.0735C152.86 103.564 155.912 107.542 160.303 108.766V54.2464C155.878 55.4868 152.86 59.4726 152.86 64.9303V64.9055Z" fill="#4E89AB"/>
<path d="M54.5532 54.2464C54.5532 54.2464 48.3594 54.6681 44.6299 59.332C40.9004 63.9958 40.8756 99.0658 44.6299 103.73C48.3842 108.394 54.5532 108.815 54.5532 108.815C56.5631 109.354 58.6792 109.354 60.6891 108.815V54.2464C58.6782 53.7161 56.5641 53.7161 54.5532 54.2464Z" fill="#0E2436"/>
<path d="M60.6892 54.2464V108.824C65.0968 107.6 68.173 103.622 68.173 98.1314V64.9055C68.173 59.4478 65.0968 55.462 60.6892 54.2216V54.2464Z" fill="#447594"/>
</g>
<defs>
<clipPath id="clip0">
<rect width="221" height="242" fill="white"/>
</clipPath>
</defs>
</svg>
